<?xml version="1.0" standalone="no"?>
<!DOCTYPE svg PUBLIC "-//W3C//DTD SVG 1.1//EN" "http://www.w3.org/Graphics/SVG/1.1/DTD/svg11.dtd" >
<svg xmlns="http://www.w3.org/2000/svg">
<metadata></metadata>
<defs>
<font id="kalamregular" horiz-adv-x="925" >
<font-face units-per-em="2048" ascent="1536" descent="-512" />
<missing-glyph horiz-adv-x="614" />
<glyph horiz-adv-x="0" />
<glyph horiz-adv-x="682" />
<glyph horiz-adv-x="0" />
<glyph horiz-adv-x="0" />
<glyph unicode="&#xd;" horiz-adv-x="681" />
<glyph unicode=" "  horiz-adv-x="614" />
<glyph unicode="&#x09;" horiz-adv-x="614" />
<glyph unicode="&#xa0;" horiz-adv-x="614" />
<glyph unicode="!" horiz-adv-x="737" d="M131 160q0 43 33 83t67.5 40t81.5 -97.5t47 -146.5q0 -12 -18 -28.5t-37 -16.5q-49 0 -111.5 61.5t-62.5 104.5zM285 588q117 584 116 1016q0 51 31 51q33 2 97.5 -43t64.5 -72q0 -178 -88 -618.5t-139 -440.5q-31 0 -58.5 34t-23.5 73z" />
<glyph unicode="&#x22;" horiz-adv-x="643" d="M111 1203.5q0 15.5 18 183t18 299.5q0 37 24 36.5t62.5 -32.5t38.5 -52q0 -104 -29.5 -302.5t-66.5 -198.5q-20 0 -42.5 25.5t-22.5 41zM446 1203.5q0 15.5 18.5 183t18.5 299.5q0 37 24.5 36.5t63.5 -32.5t39 -52q0 -104 -29.5 -302.5t-66.5 -198.5q-20 0 -44 25.5 t-24 41z" />
<glyph unicode="#" horiz-adv-x="1314" d="M92 426q0 53 264 92q10 45 41 172t45 191q-170 -29 -192.5 -28t-45 33t-22.5 60q0 55 297 98q39 190 38 265t6 89.5t35 14.5t77 -47t49 -105.5t-27 -195.5q47 4 250 20q33 170 32 234.5t6 79t35 14.5t77 -47t49 -100.5t-21 -171.5q37 2 89 2q123 0 122 -56q0 -27 -53 -44 t-186 -35q-12 -51 -99 -392q102 4 123 4q127 0 123 -55q0 -29 -64.5 -47t-219.5 -39q-63 -246 -97.5 -321.5t-61 -75.5t-46 37t-17.5 80q10 51 33 148t25 112l-275 -35l-16 -64q-72 -231 -88.5 -254.5t-28.5 -23.5q-29 0 -52.5 42t-19.5 93q6 27 19.5 88t21.5 94 q-141 -23 -161.5 -21.5t-42 34t-21.5 61.5zM526 541q172 16 265 20q51 215 86 377l-252 -33h-2q-37 -147 -97 -364z" />
<glyph unicode="$" horiz-adv-x="1079" d="M31 308.5q0 66.5 41 66.5q25 0 67 -47q135 -140 248 -140l131 445q-139 88 -216 158.5t-77 144.5q0 47 18.5 100.5t43.5 75.5q133 125 434 195q41 129 71.5 179t65.5 50q45 0 45 -70q-4 -59 -29 -135q12 2 37 2q59 0 96 -52t37 -101q0 -29 -30 -29q-12 0 -43 8 q-70 18 -152 2q-55 -178 -89 -282.5t-50 -161.5q145 -96 227 -180t78 -172q-8 -139 -163.5 -228.5t-350.5 -101.5q-31 -98 -49.5 -129t-41 -31t-34.5 18.5t-11 44t15 101.5q-137 23 -228 113t-91 156.5zM393 954q0 -53 170 -161q59 201 101 331q-113 -35 -192 -81t-79 -89z M520 199q125 18 206 64t81 113.5t-176 182.5q-98 -319 -111 -360z" />
<glyph unicode="%" horiz-adv-x="1798" d="M201 903q0 197 118.5 359.5t255.5 162.5q35 0 61 -11t62 -34q119 -78 314 -8q141 51 253 113.5t130 62.5q27 0 59.5 -57t24 -100t-78 -146.5t-219 -303.5t-265 -366.5t-189.5 -272t-139.5 -196t-90 -115t-42 -20.5t-40 35t-17.5 54.5t42 84t122 185.5t163 237.5 t235.5 337.5t270.5 387q-106 -59 -221 -84q-125 -25 -224 9q16 -61 17 -121q0 -176 -125 -323.5t-264 -147.5q-86 0 -149.5 86t-63.5 192zM354 918q0 -57 22.5 -99.5t63.5 -42.5q61 0 136 97.5t75 194.5t-26.5 152.5t-61.5 55.5q-61 0 -135 -118t-74 -240zM1034 301 q0 197 120 360.5t257 163.5q96 0 160.5 -100t64.5 -231q0 -176 -125 -323.5t-264 -147.5q-84 0 -148.5 87t-64.5 191zM1190 317q0 -57 22.5 -100t61.5 -43q63 0 138 97.5t75 194.5t-26.5 152.5t-61.5 55.5q-61 0 -135 -117t-74 -240z" />
<glyph unicode="&#x26;" horiz-adv-x="1308" d="M33 235.5q0 69.5 90 158.5t182 163t96 78q8 8 33 27q-154 397 45 600q106 113 277 112q131 0 186 -77.5t53 -170.5q-4 -184 -377 -503q55 -119 130 -209q90 59 219 151q260 188 282 189q57 0 58 -58q0 -37 -134.5 -154.5t-316.5 -240.5q144 -121 287 -121q96 0 134 -10 t36 -35q0 -92 -190.5 -92t-387.5 180q-326 -203 -483 -203q-78 0 -148.5 73t-70.5 142.5zM205 223.5q0 -22.5 15.5 -37t39.5 -14.5q106 0 369 164q-68 82 -127 188q-225 -188 -261 -233t-36 -67.5zM534.5 984q-4.5 -103 28.5 -214q258 223 262 344q0 49 -26.5 82t-92 33 t-116.5 -71t-55.5 -174z" />
<glyph unicode="'" horiz-adv-x="616" d="M291 1204.5q0 16.5 23.5 184t23.5 297.5q0 37 24.5 36.5t67.5 -33.5t43 -51q0 -90 -40 -300t-75 -201q-20 0 -43.5 25.5t-23.5 42z" />
<glyph unicode="(" horiz-adv-x="995" d="M166 589q0 179 75.5 380.5t187.5 344t235.5 254t221 166t136.5 54.5t71.5 -32t32.5 -58.5t-44 -63.5t-113.5 -88t-153.5 -117.5t-168 -157.5t-153.5 -196.5t-113.5 -246t-44 -271.5t31.5 -222t82 -151.5t111 -109.5t121.5 -82t111.5 -58.5t82 -48t31.5 -45.5 q0 -43 -66.5 -43t-154.5 29t-180 92.5t-168 149.5t-124 214t-48 307z" />
<glyph unicode=")" horiz-adv-x="1026" d="M-61 -136.5q0 21.5 76.5 90.5t186 175.5t220 242.5t187.5 328.5t77 395.5q0 121 -35 214t-85 143t-99 86t-84 65.5t-35 67.5t33 61.5t82 23.5q135 0 270 -177t133 -414.5t-81.5 -457t-195.5 -374t-242 -273t-222 -177t-132 -58.5t-45 8t-9 29.5z" />
<glyph unicode="*" horiz-adv-x="727" d="M186 1370q0 27 33 27q2 0 78 -7.5t125 -7.5q-59 33 -120.5 93.5t-61.5 79t3 24.5t32.5 6t77.5 -16.5t48 -36.5q0 -12 22.5 -47t47.5 -60l-14 166q0 29 24.5 29t62.5 -28.5t37.5 -47.5t-49.5 -121q133 156 156 156t48.5 -21.5t25.5 -44.5q0 -12 -73 -56t-134 -71 q92 31 184 31t92 -26q0 -37 -77.5 -55.5t-192.5 1.5q12 -14 55 -47q111 -88 111 -112q0 -14 -16.5 -25.5t-32.5 -11.5q-59 0 -150 141q-31 -197 -54 -197t-48 24t-25 41t28 75.5t30 68.5q-27 -39 -84.5 -101.5t-76.5 -62.5t-38.5 19.5t-19.5 33t31.5 37t81.5 57.5t73 52 q-129 -39 -161 -39t-55.5 26.5t-23.5 53.5z" />
<glyph unicode="+" horiz-adv-x="1228" d="M113 695q0 40 55 40q311 0 412 6q27 211 38 375q2 59 41 60q35 -2 90.5 -56.5t53.5 -87.5q-4 -70 -53 -276q315 27 356 26q129 0 129 -43q0 -86 -518 -137q-12 -61 -40 -200.5t-44.5 -200t-38.5 -58.5q-31 0 -60.5 40t-27.5 80t9 80t20.5 109.5t23.5 137.5 q-176 -12 -323 -12q-47 0 -85 38.5t-38 78.5z" />
<glyph unicode="," horiz-adv-x="458" d="M-31 -322q0 16 34 48t73 66t72.5 92.5t33.5 104.5t-19.5 65.5t-41.5 27.5q-61 23 -62 61q0 33 36 68t71 35q72 0 125 -56.5t53 -134.5q0 -141 -121 -273t-209 -132q-45 0 -45 28z" />
<glyph unicode="-" horiz-adv-x="923" d="M111 592q0 43 229 85t368.5 42t139.5 -49q0 -33 -65.5 -51.5t-201 -45t-212 -43t-112.5 -23.5t-61.5 -7t-55 31.5t-29.5 60.5z" />
<glyph unicode="." horiz-adv-x="485" d="M119 159q0 44 33.5 86t70.5 42t86 -98.5t49 -149.5q0 -14 -21.5 -32.5t-39.5 -18.5q-51 0 -114.5 63.5t-63.5 107.5z" />
<glyph unicode="/" horiz-adv-x="741" d="M35 -49q0 113 653 1605q2 6 5 13.5t4 11.5t3 9t4.5 8.5t4.5 6.5t4 5l4 4q10 2 16 2q23 0 66 -58.5t43 -101.5t-55.5 -169t-156 -336t-232.5 -525t-191.5 -448.5t-82 -133.5t-56 40t-33.5 67z" />
<glyph unicode="0" horiz-adv-x="919" d="M154 432q0 213 71.5 416t183 325.5t222 122.5t168 -130t57.5 -369.5t-129 -457.5t-295 -218q-98 0 -188 95t-90 216zM324 504.5q0 -111.5 29.5 -166.5t84 -55t112.5 74.5t101 201.5t43 250q0 326 -73 326q-51 0 -121 -100.5t-123 -259.5t-53 -270.5z" />
<glyph unicode="1" horiz-adv-x="618" d="M208 141q1 45 30 199q82 442 96 971q2 59 41 59q43 0 101.5 -53t58.5 -90q-6 -209 -74 -568q-20 -98 -31.5 -175.5t-22 -134t-18.5 -92.5t-17.5 -79t-17.5 -68.5t-18 -48.5q-35 -84 -98 -4q-31 39 -30 84z" />
<glyph unicode="2" horiz-adv-x="1193" d="M168 190q0 31 70.5 93.5t172 141.5t203 170t172 203.5t70.5 200.5t-35 132.5t-87 44.5t-96 -24t-70.5 -51.5t-51 -51t-45 -23.5t-68 30.5t-47.5 59.5q0 72 118 157t253 85t223 -94.5t88 -235.5q0 -406 -676 -840q522 80 574.5 80t82.5 -9t30 -40q0 -59 -278.5 -123.5 t-418.5 -64.5q-59 0 -122.5 51t-61.5 108z" />
<glyph unicode="3" horiz-adv-x="1058" d="M74 109q0 20 111.5 48.5t244.5 58.5t244.5 96.5t111.5 152.5q0 47 -69.5 75.5t-155.5 39.5q-223 27 -223 82q0 45 86 97t174 98t160.5 115.5t72.5 141.5q0 82 -88 82t-195.5 -62.5t-134 -62.5t-64.5 38t-38 65q0 59 145.5 121.5t266.5 62.5t203 -82t82 -182.5t-115 -204 t-266 -180.5q164 -25 263 -89.5t99 -166t-116.5 -200.5t-283.5 -154.5t-341 -55.5t-174 66z" />
<glyph unicode="4" horiz-adv-x="1179" d="M229 544.5q0 114.5 111 308.5t234.5 338t159.5 144t70 -33.5t34 -63.5t-106.5 -162t-213 -286.5t-106.5 -236.5q0 -98 98 -98q92 0 215 49t147 57q18 123 19 262q0 62 49 62q31 0 83 -51.5t52 -92.5q0 -182 -109.5 -548.5t-179.5 -366.5q-29 0 -50 30.5t-21 63.5 t18.5 93.5t50 160.5t52.5 191q-176 -74 -313.5 -74t-215.5 69.5t-78 184z" />
<glyph unicode="5" horiz-adv-x="1159" d="M182 258.5q0 65.5 21 65.5q8 0 37.5 -25t88 -50.5t149.5 -25.5t178 59.5t87 124t-53 128t-117.5 112.5t-118 123t-53.5 150.5t87 200.5t147 139q115 29 307 28q291 1 291 -65q0 -51 -336 -97q-143 -20 -160 -24q-33 -8 -85 -91t-52 -122t52.5 -93.5t113.5 -100.5 t113.5 -121.5t52.5 -159.5q0 -147 -120 -244.5t-302 -97.5q-131 0 -229.5 60.5t-98.5 126z" />
<glyph unicode="6" horiz-adv-x="1110" d="M154 375q0 131 87 305t199.5 314.5t218 240.5t141.5 100t78 -24.5t42 -45t-58.5 -84t-160 -173t-171.5 -203.5q203 -20 323 -104.5t120 -186.5q0 -154 -178.5 -295t-368.5 -141q-119 0 -195.5 83t-76.5 214zM334 369q0 -63 31.5 -95t78.5 -32q111 0 227.5 86t116.5 162.5 t-90 131t-243 74.5q-121 -186 -121 -327z" />
<glyph unicode="7" horiz-adv-x="958" d="M115 1214q0 23 163.5 46.5t325.5 23.5t200 -26.5t65.5 -90t21.5 -106.5q-23 -80 -75 -180.5t-67.5 -130t-52.5 -99t-56 -107.5t-69.5 -136.5t-79 -151.5t-64.5 -115.5t-60.5 -91.5t-46 -29t-47 34t-27.5 73q-6 66 220 484.5t226 463.5q0 27 -65.5 27t-198.5 -22.5 t-173 -22.5t-90 61.5t-50 95.5z" />
<glyph unicode="8" horiz-adv-x="1277" d="M247.5 1055.5q0.5 31.5 11.5 62.5t28 31q18 0 84 -66q76 -68 194.5 -157.5t159.5 -122.5q166 129 250 210t84 138t-93.5 57t-217 -44t-150.5 -44t-73 32t-46 62q0 57 147.5 105.5t297 48.5t230.5 -61.5t81 -158.5t-100.5 -205.5t-280.5 -248.5q174 -160 174 -274 q0 -139 -172 -254t-338 -115q-90 0 -180 67.5t-90 154.5t92 190.5t260 241.5q-16 12 -54 41.5t-56.5 44t-52.5 41t-52 43t-44 39t-39 39t-28 34.5q-27 37 -26.5 68.5zM422 276q0 -33 26.5 -56t67.5 -23q106 0 218 76.5t112 172.5q0 51 -115 152q-154 -119 -231.5 -193.5 t-77.5 -128.5z" />
<glyph unicode="9" horiz-adv-x="1060" d="M160 792.5q0 102.5 75.5 244t196.5 241.5t231.5 100t171 -70.5t60.5 -162.5q0 -55 -16 -111q96 -23 39 -186q-20 -55 -50 -131t-47.5 -128t-36 -122t-32 -126t-26.5 -113.5t-23.5 -99.5t-18.5 -75q-20 -70 -43 -69q-33 2 -48 58t-7 179t88 404q-133 -102 -237.5 -102.5 t-190.5 83.5t-86 186.5zM326 764q0 -47 29.5 -72.5t65.5 -25.5t63.5 9t49 18t48 34t41 38t41 46t35 44t35 49t30.5 42q-37 8 -37 37q0 18 9 62.5t9 76.5q0 92 -71 92q-104 0 -226 -167.5t-122 -282.5z" />
<glyph unicode=":" horiz-adv-x="503" d="M78 189.5q0 46.5 28.5 92.5t57.5 46q47 0 94 -112t47 -175q0 -20 -16.5 -37.5t-38.5 -17.5q-47 0 -109.5 78.5t-62.5 125zM242 904q0 46 28.5 92t57.5 46q45 0 92 -111.5t47 -174.5q0 -20 -15.5 -38t-37.5 -18q-47 0 -109.5 79t-62.5 125z" />
<glyph unicode=";" horiz-adv-x="626" d="M-39 -365q0 16 34 48t72.5 66t72.5 92.5t34 104.5t-19.5 65.5t-41.5 27.5q-61 23 -62 61q0 33 36 68t71 35q72 0 125 -56.5t53 -134.5q0 -141 -121 -273t-209 -132q-45 0 -45 28zM262 904q0 46 28.5 92t57.5 46q47 0 94 -111.5t47 -174.5q0 -20 -16 -38t-39 -18 q-47 0 -109.5 79t-62.5 125z" />
<glyph unicode="&#x3c;" horiz-adv-x="1120" d="M182 602q0 31 23.5 79t46.5 67q102 86 384 217t382 131q43 0 68.5 -31t25.5 -50.5t-10 -31.5q-12 -10 -136 -56t-350.5 -152.5t-226.5 -151.5q0 -41 299 -188.5t299 -182.5q0 -41 -71.5 -41t-249 71.5t-331 168t-153.5 151.5z" />
<glyph unicode="=" horiz-adv-x="1282" d="M117 489q0 35 392 79t522 42t130 -47q0 -37 -91 -61.5t-288 -55.5q-383 -59 -592 -59q-25 2 -49 39t-24 63zM180 889q0 47 350.5 79.5t518.5 30.5t168 -57q0 -29 -66 -45t-176.5 -32.5t-136.5 -20.5q-432 -55 -586 -56q-25 0 -48.5 37t-23.5 64z" />
<glyph unicode="&#x3e;" horiz-adv-x="1136" d="M174 244q0 41 164 137t328.5 183t164.5 108q0 43 -166.5 137t-271.5 125q-39 12 -80 60t-41 75t45 27q135 0 332 -105.5t309 -220.5q63 -63 64 -117q0 -31 -18.5 -50t-32 -32.5t-37.5 -29.5q-70 -47 -121 -75t-90 -48q-379 -211 -492 -211q-57 0 -57 37z" />
<glyph unicode="?" horiz-adv-x="1050" d="M268 160q0 43 32 83t66.5 40t83 -97.5t48.5 -146.5q0 -12 -19.5 -28.5t-38.5 -16.5q-49 0 -110.5 61.5t-61.5 104.5zM352 1325q0 113 99.5 200t231.5 87t224 -85t92 -227q0 -82 -56 -174t-128 -163q-205 -205 -255 -326t-65.5 -135.5t-29.5 -14.5q-51 0 -51 123 q0 129 147 287q61 66 123 131q150 152 150 266q0 68 -48.5 110t-114 42t-114.5 -41t-49 -102l8 -60q0 -10 -13.5 -26.5t-56.5 -16.5q-23 0 -58.5 46t-35.5 79z" />
<glyph unicode="@" horiz-adv-x="2709" d="M428 227q0 197 94 412t252 395t388.5 297t477.5 117q291 0 457 -187.5t166 -478.5q0 -166 -87 -329.5t-218 -264t-254 -100.5q-76 0 -122 52.5t-54 131.5q-188 -207 -359 -206q-96 0 -178 77.5t-82 182t82 271.5t225.5 302t288.5 135q104 0 194.5 -110.5t90.5 -199.5 t-31 -151q4 -12 0 -22q-45 -80 -58 -151.5t1 -109.5t43 -38q102 0 221 161.5t119 377t-107.5 350.5t-319.5 135t-404.5 -98.5t-329 -250t-220 -338t-83.5 -371.5t121.5 -301t342.5 -116q162 0 253.5 23.5t140.5 40t80.5 28t56.5 17.5q45 12 45 -27q0 -61 -94 -119.5 t-227.5 -92t-252.5 -33.5q-268 0 -463.5 173t-195.5 416zM1073 330.5q0 -64.5 22.5 -87t73.5 -22.5q113 0 253.5 136.5t191.5 285.5q12 39 35 45q-18 86 -50 135t-94 49q-92 0 -197.5 -108.5t-170 -238.5t-64.5 -194.5z" />
<glyph unicode="A" horiz-adv-x="1208" d="M127 139q0 16 117 279q-41 0 -71 22.5t-30 59.5t176 96q27 59 54.5 129t110.5 257t102.5 243.5t74 92.5t109.5 36q61 0 109.5 -182.5t76.5 -444.5q49 4 68 4q113 0 113 -47q0 -33 -168 -80q17 -179 17 -281q0 -20 -1 -38q-4 -256 -65 -256q-39 0 -56 43q-29 80 -34 146.5 t-9 117.5t-9 126t-7 99q-180 -45 -258 -66.5t-101 -27.5q-92 -233 -139 -335.5t-76.5 -102.5t-66.5 35.5t-37 74.5zM518 651q123 31 273 56q-25 231 -68 440q-99 -217 -205 -496z" />
<glyph unicode="B" horiz-adv-x="1198" d="M4 206q0 56 39 56q10 0 73.5 -41t141.5 -43q-74 47 -76 113q0 29 47 176q141 444 146 666h-13q-35 0 -72.5 46t-37.5 72q0 33 84 58t201 24q266 0 409.5 -73.5t143.5 -206.5q0 -109 -92.5 -198t-266.5 -146q168 -16 267.5 -86t99.5 -152q0 -113 -117 -216t-304.5 -165.5 t-383.5 -62.5q-119 0 -204 61.5t-85 117.5zM313 180q213 12 411 104.5t198 194.5q0 53 -127 91t-260 38q-41 0 -84 39q-10 -41 -33 -121t-56.5 -202.5t-48.5 -143.5zM479 756q37 18 115 49q184 63 248.5 113.5t64.5 116t-62.5 98t-151.5 32.5t-191 -18q41 -49 41 -96 t-64 -295z" />
<glyph unicode="C" horiz-adv-x="1171" d="M127 397q0 176 120 397.5t308 383t363 161.5q55 0 110 -62.5t55 -105.5t-28 -43q-14 0 -52 14.5t-75 14.5q-72 0 -177.5 -72.5t-200.5 -180t-163 -249t-68 -262.5q0 -78 54.5 -128t156 -50t215 39t186.5 78t93 39q35 0 35 -44t-88 -114t-220.5 -125t-238.5 -55 q-137 0 -261 116.5t-124 247.5z" />
<glyph unicode="D" horiz-adv-x="1239" d="M131 216.5q0 62.5 106.5 435t114.5 511.5q-55 25 -90 64t-35 69q0 43 45 43q129 0 279.5 -53t278.5 -141t214 -217t86 -264q0 -88 -96 -202t-231 -207t-286.5 -157.5t-254.5 -64.5q-39 0 -85 60.5t-46 123zM309 215q129 20 284 110.5t256 192t101 160.5q0 119 -137 256 t-309 190q8 -41 8 -61q0 -76 -137 -555q-2 -8 -6 -21q-41 -115 -60 -272z" />
<glyph unicode="E" horiz-adv-x="1130" d="M121 206q0 77 57.5 261t114.5 392t57 349q0 33 12 52q39 70 422 70h6q388 0 388 -62q0 -41 -84 -56q-66 -12 -183.5 -20t-154.5 -12t-234 -33v-4q0 -135 -71 -379h45l360 18q78 0 78 -32q0 -133 -526 -134q-106 -332 -107 -383q0 -40 45 -40h2q225 0 492 67q90 23 104 23 q35 0 35 -45q0 -74 -213 -142.5t-416 -68.5q-90 0 -159.5 51t-69.5 128z" />
<glyph unicode="F" horiz-adv-x="1009" d="M62 179q4 40 112.5 460t112.5 569q0 20 6 37q10 43 104.5 63.5t321.5 20.5q368 0 368 -69q0 -43 -165 -62q-39 -4 -121 -10t-213 -20.5t-144 -14.5v-12q0 -94 -71 -404h67l344 19q78 0 78 -35q0 -55 -161.5 -93t-364.5 -38q-127 -508 -154 -547q-8 -10 -14 -10 q-29 0 -70 53q-37 48 -37 85q1 4 1 8z" />
<glyph unicode="G" horiz-adv-x="1150" d="M80 362q0 190 117.5 420t303 393.5t357.5 163.5q57 0 111.5 -64.5t54.5 -106.5t-31 -42q-14 0 -49 15.5t-70 15.5q-111 0 -254 -123t-248.5 -310t-105.5 -349q0 -76 45 -123t119 -47t189.5 94t216.5 238q-104 -29 -147.5 -29t-85.5 29.5t-42 56.5q0 70 301 70 q70 0 115 -56.5t45 -133.5t-98.5 -358.5t-149.5 -281.5q-29 0 -45 17.5t-16 46t22.5 97t63.5 187.5t69 217q-96 -168 -213.5 -267t-234.5 -99t-228.5 103.5t-111.5 225.5z" />
<glyph unicode="H" horiz-adv-x="1265" d="M109 171q0 46 86 368q-27 10 -45.5 33.5t-18.5 52.5q0 23 100 53q127 475 127 598q0 33 9.5 47t38 14t71.5 -57t43 -122.5t-96 -434.5q266 49 491 63q98 371 99 490q0 33 9 47t38 14t72 -56t43 -120.5t-84 -378.5q84 -14 84 -52t-115 -60q-35 -129 -48.5 -175t-35 -126 t-35.5 -132.5t-29 -101.5q-29 -102 -47 -102q-31 0 -67.5 40t-36.5 86t117 484q-211 -25 -500 -84q-100 -369 -117 -422q-29 -104 -47 -104q-27 0 -66.5 46t-39.5 92z" />
<glyph unicode="I" horiz-adv-x="575" d="M109 156q0 39 111.5 521t111.5 599q0 35 8 48t37 13t75 -57t46 -113q0 -100 -131 -624q-14 -57 -36 -145.5t-35 -142.5t-30 -112q-33 -111 -53 -110q-29 0 -66.5 42t-37.5 81z" />
<glyph unicode="J" d="M18 303.5q0 63.5 41 63.5q18 0 64 -48q139 -137 246 -137q55 0 112.5 135.5t152.5 468t154 433.5q-84 -12 -232 -49t-181 -37q-76 0 -76 49q0 63 237.5 128.5t348.5 65.5q37 0 64.5 -16.5t27.5 -45t-22.5 -100t-65.5 -186.5q-55 -156 -156.5 -474t-161 -419.5 t-183.5 -101.5t-247 103.5t-123 167z" />
<glyph unicode="K" horiz-adv-x="1120" d="M90 170q0 45 125 516t125 590q0 33 9 47t38 14t72 -56t43 -130t-101 -444q174 236 361.5 428t247.5 192q41 0 74.5 -23.5t33.5 -49t-105.5 -123t-258 -242t-232.5 -258.5q0 -76 41 -166q68 -150 277 -248q90 -43 142 -72.5t52 -62.5q0 -49 -84 -49q-150 0 -329 128 t-230 337q-45 -78 -147 -375q-27 -90 -45 -90q-29 0 -69 46t-40 91z" />
<glyph unicode="L" horiz-adv-x="1015" d="M109 202.5q0 73.5 131 515t131 568.5q0 33 9 47.5t39 14.5t74 -47.5t44 -98.5q0 -139 -164 -657q-82 -272 -82 -312t47 -40q233 0 471 61q79 22 95 22h1q35 0 35 -34q0 -76 -199.5 -145.5t-400.5 -69.5q-90 0 -160.5 51t-70.5 124.5z" />
<glyph unicode="M" horiz-adv-x="1501" d="M98 170q0 45 125 516t125 590q0 33 9.5 47t35 14t85 -49t63.5 -90q18 -152 225 -586q109 129 254 310.5t207.5 254t103.5 107.5t70 35t66.5 -38t37.5 -70.5t-7 -74.5t-25.5 -111t-34 -122t-46 -158.5t-52 -182.5t-59.5 -237.5t-59.5 -226t-41.5 -65.5q-29 0 -55.5 44 t-26.5 120.5t64.5 355t137.5 463.5q-51 -63 -109 -134t-95 -116t-78 -95t-67.5 -80t-54.5 -61.5t-46.5 -48t-38.5 -30.5q-31 -27 -60.5 -27t-65.5 20.5t-56 49.5q-47 74 -174 370q-49 -180 -82 -295.5t-56.5 -199.5t-38 -133.5t-32.5 -100.5q-33 -102 -51 -102q-25 0 -61 46 t-36 91z" />
<glyph unicode="N" horiz-adv-x="1304" d="M94 170q0 45 125 516t125 590q0 33 9 47t34 14t63.5 -35.5t52 -68.5t87.5 -209q182 -444 303 -711q63 174 101 349.5t46 285.5q23 295 36.5 344t50 49t79.5 -48t42 -89q0 -6 1 -13q0 -158 -46 -421q-48 -274 -132 -505.5t-166 -231.5q-27 0 -61.5 27.5t-54 66.5 t-82 186.5t-139 329.5t-109.5 258q-53 -199 -124 -467t-93 -334.5t-47 -66.5t-63 46t-38 91z" />
<glyph unicode="O" horiz-adv-x="1153" d="M104 395q0 174 61.5 349.5t155 304.5t207 209.5t211.5 80.5q154 0 257.5 -141t103.5 -320.5t-94.5 -374t-258 -332.5t-339.5 -138q-123 0 -213.5 118.5t-90.5 243.5zM276 427q0 -116 41 -177.5t103 -61.5q92 0 211 110t205 267.5t86 296.5t-51.5 224t-115 85 t-144.5 -69.5t-154.5 -174t-127 -244.5t-53.5 -256z" />
<glyph unicode="P" horiz-adv-x="1021" d="M78 159q0 42 105.5 419.5t117.5 558.5q-45 49 -45 86q0 47 127 89t242 42q182 0 292.5 -88t110.5 -240q0 -201 -192.5 -342t-507.5 -203q-14 -47 -38 -131t-36 -127t-29 -94q-31 -94 -47 -94q-29 0 -64.5 41t-35.5 83zM373 637q221 57 354 157.5t133 209.5 q0 84 -61.5 132t-147.5 48t-198 -45q12 -29 12 -56q0 -119 -92 -446z" />
<glyph unicode="Q" horiz-adv-x="1265" d="M104 395q0 231 97.5 453.5t246 356.5t298 134t269.5 -143t120 -323.5t-93.5 -376t-242.5 -322.5q25 -70 63 -166q76 -188 76 -221q0 -45 -49 -45q-86 0 -219 348q-111 -57 -238 -57t-227.5 112.5t-100.5 249.5zM276 436q0 -125 51.5 -186.5t127 -61.5t159.5 56 q-133 403 -133 647q0 66 8 108q-92 -121 -152.5 -279.5t-60.5 -283.5zM641 977q0 -307 98 -625q97 105 157 243t60 268t-67.5 219t-140.5 89q-31 0 -74 -16q-33 -59 -33 -178z" />
<glyph unicode="R" horiz-adv-x="1071" d="M78 159q0 42 103.5 409.5t117.5 547.5q-25 18 -46.5 52t-21.5 55q0 43 129 89t244 46q195 0 308.5 -72t113.5 -209q0 -90 -52 -170t-126 -131t-148.5 -89t-127 -62.5t-52.5 -36.5q0 -66 250 -283q25 -23 63.5 -54.5t63.5 -53t49 -43.5q51 -45 51 -72q0 -47 -63 -47 q-102 0 -312 189.5t-272 328.5q-55 -184 -79.5 -275.5t-41.5 -142.5q-33 -100 -51 -100q-29 0 -64.5 41t-35.5 83zM385 680q27 18 168 90t222 145.5t81 163.5q0 104 -201 105q-86 0 -202 -43q12 -27 12 -58q0 -106 -80 -403z" />
<glyph unicode="S" horiz-adv-x="1003" d="M31 301q0 57 39 57q33 0 118 -86q33 -33 87.5 -59.5t113.5 -26.5q135 0 233.5 65.5t98.5 145.5q0 90 -213 277q-78 70 -144.5 150.5t-66.5 127.5t18.5 98.5t40.5 73.5q76 80 225.5 147.5t256.5 66.5q55 0 94 -35t39 -74q0 -20 -40 -30.5t-120 -28t-141 -42.5 q-207 -86 -207 -159q0 -25 68.5 -91.5t149.5 -139t149.5 -170t68.5 -175.5q0 -153 -139 -256.5t-320.5 -103.5t-295 93t-113.5 175z" />
<glyph unicode="T" horiz-adv-x="940" d="M45 1277q0 36 122 44t517 8q168 0 288 -45t120 -92q0 -37 -117 -37h-12q-258 12 -326 14q4 -20 4 -30q0 -109 -178 -770q-23 -88 -35 -134.5t-27 -99.5q-31 -100 -51 -100q-27 0 -62.5 41t-35.5 85t102.5 440t120.5 566l-328 -14q-31 0 -66.5 44t-35.5 80z" />
<glyph unicode="U" horiz-adv-x="1112" d="M109 403.5q0 145.5 80.5 452.5t80.5 422q0 61 43 61q35 0 84 -53t49 -119.5t-78.5 -345t-78.5 -385t34.5 -169t98.5 -62.5q84 0 180 114.5t167 314.5t71 408q0 104 -8.5 171t-8.5 81q0 45 41 45t102.5 -60t63.5 -132v-37q0 -267 -80 -509q-86 -259 -233.5 -414.5 t-310.5 -155.5q-123 0 -210 113.5t-87 259z" />
<glyph unicode="V" horiz-adv-x="991" d="M98 1276q0 61 37 61q41 0 84 -40t66 -101q10 -35 58 -347t106 -515q109 279 309.5 641t261.5 362q29 0 60.5 -21.5t31.5 -53t-36 -98t-123 -212t-148.5 -267.5t-116.5 -238.5t-86 -182t-61 -125.5q-58 -112 -102 -112h-1q-27 0 -59.5 37.5t-52.5 85.5q-49 119 -138.5 570 t-89.5 556z" />
<glyph unicode="W" horiz-adv-x="1583" d="M115 188q6 115 52 483.5t48 590.5q0 76 45 76h1q45 0 103 -50q55 -47 55 -90q1 -32 -59 -372q-56 -322 -77 -529q115 170 247 302t193 132q68 0 111 -264q16 -98 61 -180t115 -82q109 0 190.5 168t81.5 347t-78 310t-190 133q-57 2 -101.5 42t-44.5 77q1 57 97 57 q158 0 275.5 -91t173.5 -232.5t56 -306.5q0 -264 -136 -470t-326 -206q-137 0 -221.5 131t-114.5 350q-280 -350 -350 -418q-64 -63 -99 -63h-6q-35 6 -69 56q-33 47 -33 94v5z" />
<glyph unicode="X" horiz-adv-x="1200" d="M72 102.5q0 14.5 4 22.5t7 12t36 37q96 96 366 471q-284 455 -284 640q0 54 37 54q57 0 112.5 -28.5t55.5 -65.5q0 -160 186 -452q221 324 319.5 435t153.5 111q27 0 74 -42t47 -62.5t-12.5 -32.5t-39 -28.5t-41 -30t-26.5 -26.5t-28.5 -33.5t-32 -38t-39 -49t-41 -55 t-49 -67t-52.5 -71.5q-102 -137 -127 -170q53 -78 161 -225.5t154 -218t46 -98.5t-16.5 -44t-38.5 -16q-49 0 -165 129t-249 325q-223 -311 -290 -381.5t-118 -70.5q-31 0 -70.5 27.5t-39.5 42z" />
<glyph unicode="Y" horiz-adv-x="1081" d="M125 1188q-1 15 -1 28q0 123 82 123h1q35 0 55.5 -57t49 -165.5t71.5 -199t104.5 -147.5t104.5 -57q31 0 116 156.5t178 313t146 156.5q43 0 73 -31.5t30 -74.5t-69 -157.5t-191.5 -304t-194.5 -316.5q-168 -313 -213 -367.5t-76 -54.5q-49 0 -49 80t186 432 q-160 47 -269 227t-134 416z" />
<glyph unicode="Z" horiz-adv-x="1107" d="M89 229q0 65 81 159q84 97 205 195.5t241 194.5q287 224 287 303v2q-2 23 -94 41q-83 16 -157 15h-17q-82 -2 -163 -14.5t-123 -13.5h-2q-41 0 -84 45q-44 46 -46 87q0 35 81 60t259 24.5t338 -55.5q86 -29 140.5 -90.5t56.5 -114.5v-3q0 -80 -120 -211 q-122 -134 -269.5 -251t-269.5 -222.5t-122 -134t39 -28.5q100 0 323.5 31t295 31t71.5 -60q0 -70 -236.5 -129t-494.5 -59q-81 -1 -149 63q-70 66 -71 135z" />
<glyph unicode="[" d="M156 38q0 73 197.5 710.5t197.5 785.5q0 10 4 27q12 90 367 75q197 -4 192 -65q0 -25 -19.5 -34t-35 -14t-44 -9.5t-52.5 -6.5q-104 -8 -248 -34q2 -9 2 -23q0 -141 -246 -909q-133 -424 -133 -469q0 -41 52 -41t167 13t133 13q37 0 37 -34q0 -53 -125 -102.5t-216 -49.5 t-160.5 47t-69.5 120z" />
<glyph unicode="\" horiz-adv-x="1228" d="M256 1456q0 43 43 101.5t66 58.5q12 0 16 -4t7 -6t6 -8.5t4 -10.5t5.5 -14t6.5 -17q653 -1493 653 -1605q0 -27 -34 -67t-56.5 -40t-82 133.5t-191.5 448.5t-232 525t-155.5 336t-55.5 169z" />
<glyph unicode="]" horiz-adv-x="903" d="M-16 -2q0 37 38.5 37t134 -13.5t149.5 -13.5t63 47q57 227 160.5 695.5t103.5 609.5q0 10 4 22q-45 4 -77 4t-86 -1t-84 0t-64 4q-66 6 -66 45q0 92 278.5 105t280.5 -83v-12q0 -178 -92 -631t-178 -809q-20 -84 -71.5 -120t-157 -36t-221 48.5t-115.5 101.5z" />
<glyph unicode="^" horiz-adv-x="864" d="M162 1331q39 119 132 255t142 136q29 0 69 -13t55 -30.5t26.5 -46t34 -95.5t81 -203.5t58.5 -159.5q0 -37 -33 -37q-76 0 -262 403q-61 -66 -129 -185.5t-79 -131t-35.5 -39t-35 -25.5t-16.5 6q-51 47 -8 166z" />
<glyph unicode="_" horiz-adv-x="1243" d="M94 62.5q0 33.5 160 52t408.5 18.5t355 -19.5t106.5 -60.5q0 -51 -450 -63q-29 -2 -43 -2l-459 -27q-27 2 -52.5 35t-25.5 66.5z" />
<glyph unicode="`" horiz-adv-x="0" d="M-248 1622q0 43 33 76q55 59 104 8l207 -217q31 -31 39 -63.5t-8 -52t-30.5 -23.5t-35.5 6q-33 20 -57 39l-225 166q-27 18 -27 61z" />
<glyph unicode="a" horiz-adv-x="1060" d="M96 279q0 125 94.5 305t243 319t277.5 139q98 0 184 -85t86 -179q0 -61 -49 -143q23 -31 22.5 -56.5t-29 -126t-38.5 -155.5t-13.5 -96t-6.5 -68t-7 -51q-8 -49 -43 -49q-74 0 -84 237q-86 -104 -189.5 -170.5t-193.5 -66.5t-172 78.5t-82 167.5zM254 276q0 -39 24.5 -61 t63.5 -25h7q110 0 247 124q141 128 207 329q10 31 35 39v12q0 84 -29 136.5t-80 52.5q-86 0 -200.5 -115t-194.5 -259t-80 -233z" />
<glyph unicode="b" horiz-adv-x="1062" d="M90 150.5q0 37.5 64.5 263t129 546t64.5 594.5q0 35 8.5 48.5t37 13.5t71.5 -56.5t43 -113.5q0 -276 -111 -735q246 338 449 338q96 0 161.5 -93.5t65.5 -221.5t-74.5 -295t-201.5 -288.5t-267.5 -121.5t-275.5 147q-41 -143 -66.5 -143t-61.5 40t-36 77.5zM309 313 q94 -135 207 -135q135 0 265 182.5t130 387.5q0 135 -80 135q-121 0 -269 -169t-253 -401z" />
<glyph unicode="c" horiz-adv-x="931" d="M102 343q0 130 85 296t221.5 284.5t263.5 118.5q86 0 147.5 -72.5t61.5 -119.5t-33 -47q-23 0 -73 39t-91 39q-113 0 -262.5 -199t-149.5 -346q0 -66 42 -106t119 -40t142.5 13.5t98.5 29.5q82 45 117.5 45.5t35.5 -36.5q0 -55 -142 -132t-260 -77t-220.5 90t-102.5 220z " />
<glyph unicode="d" horiz-adv-x="1040" d="M92 279q0 127 69.5 303t200 318t275.5 142t203 -180q102 436 114 692q0 33 9.5 47.5t38 14.5t71.5 -57.5t43 -110.5t-50 -302t-120 -530q-145 -583 -188 -583q-29 0 -59.5 32.5t-30.5 67.5t18 113q-203 -213 -360 -213q-92 0 -163 80t-71 166zM250 272q0 -39 29.5 -63.5 t68.5 -24.5q80 0 219.5 118t200.5 273l6 25v10q0 115 -37 194t-94 79q-88 0 -183 -107.5t-152.5 -251t-57.5 -252.5z" />
<glyph unicode="e" horiz-adv-x="929" d="M68 365.5q0 144.5 76.5 303t199.5 266t243 107.5t218 -113.5t98 -222t-116.5 -176t-260 -67.5t-278.5 35q-29 -90 -29 -165t47 -116t146.5 -41t206 37t118.5 37q51 0 51 -39q0 -53 -123.5 -115.5t-240.5 -62.5q-156 0 -256 94t-100 238.5zM293 606q90 -18 198.5 -18 t184.5 33.5t76 91t-51.5 118t-102.5 60.5q-80 0 -164 -82t-141 -203z" />
<glyph unicode="f" horiz-adv-x="765" d="M102 834.5q0 33.5 85 55t167 38.5q6 31 17.5 90t17.5 86q51 270 129 385t217 115q102 0 166 -80t64 -183.5t-52 -103.5q-49 0 -75 109q-10 41 -36 74.5t-61.5 33.5t-62.5 -25.5t-51 -89.5q-39 -106 -60 -190l-47 -197q78 10 148 11q135 0 135 -56q0 -35 -62 -53 q-104 -31 -258 -53q-94 -379 -132 -514t-66.5 -197.5t-52 -62.5t-54.5 39q-25 31 -25 60q0 7 1 13q154 584 163 627q-100 -18 -126.5 -18t-57.5 26.5t-31 60z" />
<glyph unicode="g" horiz-adv-x="964" d="M-37 -270q0 29 18.5 60.5t39 31.5t47 -31t50 -66.5t73 -66.5t95.5 -31t69.5 13.5t44 44t36 62.5t31.5 85t28.5 95t31 113t30.5 116q-164 -123 -265.5 -123t-175 77.5t-73.5 168.5q0 127 83 306t219 318t265 139q127 0 181 -114q43 -92 51 -219q2 -25 -2 -58 q23 -31 23 -69q0 -9 -1 -19q-14 -70 -63 -151q-53 -119 -107.5 -307.5t-87.5 -306t-108.5 -209t-188.5 -91.5q-145 0 -244.5 77t-99.5 155zM199 276q0 -39 26 -61q29 -26 70 -26q89 0 231 126q145 127 207 289q-10 25 -16 81t-13.5 94t-30 71t-55.5 33q-82 0 -183 -115 t-168.5 -259t-67.5 -233z" />
<glyph unicode="h" horiz-adv-x="1099" d="M41 158q129 528 154 649q100 489 100 731q0 78 49 78q35 0 76 -58.5t41 -113.5q0 -139 -64.5 -464t-173.5 -648q213 383 349.5 546.5t234.5 163.5q53 0 121.5 -89t68.5 -169q0 -117 -51 -297q-129 -454 -235 -454q-43 0 -43 47t17 107.5t50 156.5q96 287 96 391 q0 39 -19 65.5t-47 26.5t-64.5 -26.5t-92.5 -100.5q-76 -98 -142.5 -199.5t-70.5 -107.5q-14 -25 -29.5 -48t-53.5 -84.5t-58.5 -93.5t-44.5 -69q-45 -66 -70.5 -66t-63.5 46q-34 41 -34 73v7z" />
<glyph unicode="i" horiz-adv-x="532" d="M74 129q14 63 53 208.5t94 379t66 262.5q20 63 47 63q35 0 66.5 -42t31.5 -82q0 -123 -209 -781q-35 -104 -90 -104q-27 -1 -46 29q-14 22 -14 50q0 8 1 17zM348 1338q0 40 31 75t63.5 35t77.5 -81t45 -134q0 -18 -17.5 -33.5t-35.5 -15.5q-47 0 -105.5 57t-58.5 97z" />
<glyph unicode="j" horiz-adv-x="503" d="M-426 -268q0 27 18.5 59.5t36.5 32.5q25 0 84 -76q90 -115 162 -115q66 0 117 127q51 131 89 300t64 288q74 326 146 600q29 94 57 95h2q28 0 60 -39q34 -41 34 -73t-8 -76t-32.5 -143.5t-51 -200.5t-79 -306t-99.5 -389q-82 -315 -307 -316q-100 0 -196.5 86t-96.5 146z M375 1337q0 39 29.5 75t63.5 36t78 -81t44 -117t-16.5 -51t-34.5 -15q-47 0 -105.5 57t-58.5 96z" />
<glyph unicode="k" horiz-adv-x="1013" d="M94 164q264 1006 264 1395q0 33 9.5 45t38 12t69.5 -56.5t41 -113.5q0 -190 -73.5 -520t-178.5 -635q236 338 408 544.5t212 206.5t74 -38q27 -31 27 -59q0 -7 -2 -13q-29 -35 -144.5 -159t-164.5 -201.5t-49 -150.5t44 -135.5t97 -94t97 -61.5t44 -50q0 -47 -71 -47 q-100 0 -220 105.5t-133 226.5q-143 -193 -204.5 -262.5t-91 -69.5t-63.5 47q-30 42 -30 76v8z" />
<glyph unicode="l" horiz-adv-x="479" d="M57 154q84 365 125 554t77 430.5t36 411.5q0 37 7 51.5t32.5 14.5t74 -55.5t48.5 -106.5q0 -379 -170 -1040q-90 -336 -121 -373q-6 -8 -12 -8q-29 0 -65 43q-32 39 -32 71v7z" />
<glyph unicode="m" horiz-adv-x="1699" d="M49 152q16 80 71.5 274.5t68 345t16.5 214t35 63.5q43 0 84 -44t41 -92q0 -180 -136 -594q223 408 338 565.5t221 157.5q49 0 117 -84t68 -183t-35 -218q249 485 444 485q61 0 109.5 -81.5t48.5 -194.5q0 -180 -88 -456.5t-174 -276.5q-43 0 -43 52t37 157 q110 310 110 486q0 126 -43 126q-61 0 -178 -172q-43 -66 -205 -328q-14 -23 -61 -117t-82 -149t-58.5 -55t-52 30.5t-28.5 58.5t39 120q112 279 112 504q0 47 -20.5 77.5t-40 30.5t-37.5 -9t-38.5 -33t-40 -49.5t-50.5 -71.5t-57 -89q-51 -86 -111.5 -178t-97.5 -150.5 t-59.5 -93.5t-49.5 -74q-53 -74 -77.5 -74t-62.5 45q-34 40 -34 69v6z" />
<glyph unicode="n" horiz-adv-x="1083" d="M50 157q7 36 41 142.5t50 169.5q53 199 62 442q4 74 11 106t30 32q41 0 83 -45.5t42 -104.5t-33 -219t-86 -313q201 344 330 509.5t215 165.5q68 0 136 -82.5t68 -175.5q0 -145 -67 -354q-127 -397 -219 -397q-43 0 -43 55q0 45 47 178q123 354 123 482q0 45 -19.5 76.5 t-40 31.5t-42 -12.5t-47 -40t-49.5 -56t-57.5 -80t-58.5 -89.5q-137 -211 -205.5 -321t-95.5 -151q-53 -74 -79.5 -74t-64.5 45q-32 37 -32 69q0 5 1 11z" />
<glyph unicode="o" d="M78 369.5q0 148.5 69.5 307.5t185.5 262t237.5 103t201.5 -103.5t80 -238.5q0 -248 -161 -457.5t-374 -209.5q-104 0 -171.5 94t-67.5 242.5zM244 363.5q0 -162.5 80 -199.5q154 27 260 201t106 333q0 72 -24.5 135.5t-69.5 90.5q-147 -37 -249.5 -217.5t-102.5 -343z " />
<glyph unicode="p" horiz-adv-x="1040" d="M-6 -374q0 38 59 272q184 731 205 1095q4 43 15.5 52.5t37 9.5t73.5 -49.5t50 -116.5q0 -31 -14 -96q188 256 381 256q88 0 150.5 -110t62.5 -249t-115 -295.5t-277.5 -258t-297.5 -101.5q-49 0 -84 12v-2q-6 -25 -19.5 -85t-23 -101t-23.5 -100.5t-25.5 -98.5t-23.5 -77 t-23.5 -57.5t-30 -19.5t-48 41t-29.5 79zM274 188q9 -2 29 -2q172 0 357.5 165t185.5 348.5t-82 183.5t-220 -141.5t-220 -358.5l-2 2z" />
<glyph unicode="q" horiz-adv-x="1001" d="M109 289q0 88 56 219t141 250t196.5 201.5t203 82.5t166 -73.5t74.5 -122.5t-33 -49q-25 0 -79 45t-95 45q-90 0 -205.5 -116t-194.5 -261t-79 -234q0 -35 23.5 -59t54.5 -27h7q112 0 255 128q148 131 199 331q8 29 39.5 29t71.5 -27.5t40 -57.5t-34.5 -129 t-119.5 -324.5t-153 -415.5q158 106 240 106q20 0 34.5 -13.5t17.5 -31.5t-18.5 -39.5t-80 -55.5t-129 -83t-112.5 -77t-64.5 -28t-48 41t-25.5 64.5t3 39t11 42t18.5 54.5t28 77t34.5 95t46 125t55 148q-72 -72 -156.5 -113.5t-157.5 -41.5t-151.5 84t-78.5 172z" />
<glyph unicode="r" horiz-adv-x="667" d="M98 201q112 329 112 566q0 20 -1 38q0 35 -3 99q-2 39 -2 64q0 17 1 27q6 47 41 47q39 0 71 -47q35 -51 35 -154q0 -42 -6 -93q86 137 156 200q70 62 160 82q28 6 50 6q48 0 64 -30q5 -9 6 -19q0 -34 -69 -67q-115 -49 -195 -146q-113 -139 -252 -577 q-41 -123 -61.5 -146.5t-40.5 -23.5h-3q-37 0 -61 54q-13 30 -12 61q0 29 10 59z" />
<glyph unicode="s" horiz-adv-x="862" d="M12 231.5q0 57.5 43 57.5q23 0 76 -37q106 -72 221 -72t169 30t54 78t-59 101t-131 93t-131 99.5t-59 120.5q0 109 167.5 224.5t280.5 115.5q70 0 129 -75.5t59 -119.5t-30 -44q-23 0 -70 38t-97 38t-156.5 -59.5t-106.5 -125.5q0 -31 59 -76t130 -89t130.5 -113.5 t59.5 -151.5t-110 -156.5t-257 -74.5t-259 70.5t-112 128z" />
<glyph unicode="t" horiz-adv-x="745" d="M59 895q0 45 256 90q33 180 38 258t12.5 91.5t35 13.5t75.5 -42t48 -89.5t-35 -206.5q106 12 187 12q121 0 121 -49q0 -31 -63.5 -49.5t-280.5 -61.5q-47 -170 -110.5 -377t-63.5 -256q0 -41 47 -41q82 0 191.5 43t121.5 43q35 0 35 -34q0 -55 -121 -131t-218 -76 t-159.5 52t-62.5 109.5t23.5 146.5t68.5 234.5t71 249.5q-98 -20 -127.5 -20t-59.5 30.5t-30 59.5z" />
<glyph unicode="u" horiz-adv-x="980" d="M33 268q0 125 54 312.5t127 324.5t120 137q33 0 58.5 -31.5t25.5 -61t-55.5 -140.5t-109.5 -265.5t-54 -277.5q0 -35 21.5 -58.5t51.5 -23.5q82 0 194 141.5t199 325t109.5 276.5t30.5 104t29 11q36 0 76 -61q29 -45 29 -84q0 -14 -3 -27l-225 -751q-25 -86 -68 -86 q-27 1 -44 25q-15 22 -15 60v9q8 84 51 225q-86 -141 -187.5 -230t-186.5 -89t-156.5 75.5t-71.5 159.5z" />
<glyph unicode="v" horiz-adv-x="864" d="M100 983q0 59 35 59q41 0 86 -35.5t54.5 -73.5t23.5 -183q29 -334 104 -517q55 121 143.5 344.5t142.5 344t81 120.5q31 0 63.5 -24.5t32.5 -64.5t-154.5 -378.5t-211 -443t-103.5 -104.5q-27 0 -62.5 37.5t-53.5 85.5q-55 131 -118 413.5t-63 419.5z" />
<glyph unicode="w" horiz-adv-x="1388" d="M109 197q0 143 48 397t48 375q0 75 36 75h1q43 0 95 -47t52 -83.5t-60.5 -273.5t-62.5 -370q121 180 231.5 297t176.5 117q61 0 96 -242q14 -92 57 -167.5t113 -75.5q94 0 162.5 98t68.5 260t-68.5 245t-166.5 83q-45 0 -85 40t-40 72q0 45 94 45q199 0 310.5 -145 t111.5 -348q0 -174 -98 -336q-49 -80 -128 -130t-173 -50q-123 0 -205 135t-107 326q-98 -125 -173.5 -225.5t-106.5 -139.5q-76 -96 -133 -96q-29 0 -61.5 53t-32.5 111z" />
<glyph unicode="x" horiz-adv-x="864" d="M31 121q0 10 44 55t133 137.5t165 188.5q-94 166 -162 311t-68 187t35 42q51 0 106.5 -23.5t55.5 -57.5q0 -92 129 -330q170 231 250 321t127 90q29 0 63.5 -30.5t34.5 -52t-13 -37t-44 -42t-59.5 -56t-71.5 -84t-103.5 -131.5t-101.5 -126q45 -82 125 -202.5 t99.5 -155.5t19.5 -51q0 -41 -47 -41q-88 0 -295 334q-213 -258 -260.5 -296t-73 -38t-57 30.5t-31.5 57.5z" />
<glyph unicode="y" horiz-adv-x="1064" d="M12 -285q0 27 23.5 59.5t39 32.5t43 -28.5t58.5 -61.5q80 -90 162 -90t137 158l158 448q-144 -200 -289 -200q-88 0 -158.5 77.5t-70.5 170.5q0 193 111.5 477t181.5 284q33 0 62.5 -31.5t29.5 -63.5t-56 -144q-165 -336 -165 -535q0 -37 21.5 -60.5t53.5 -23.5h2 q118 0 268 258q152 260 240 543q8 35 15.5 46t27.5 11q45 0 84 -64q24 -40 24 -83q0 -26 -9 -53l-371 -1053q-102 -289 -299 -289q-113 0 -218.5 70t-105.5 145z" />
<glyph unicode="z" horiz-adv-x="940" d="M70 214q0 54 98 149.5t217 181.5q313 229 313 291q0 25 -40 34t-117.5 9t-154.5 -12.5t-109.5 -12.5t-68.5 40t-36 72.5t90 54t236.5 21.5t236.5 -43q41 -18 77 -70t36 -89q0 -76 -91 -177.5t-200 -179.5q-291 -213 -291 -254q0 -36 57 -36h3q90 0 270 30.5t225 30.5 q74 0 74 -53q0 -57 -214 -113.5t-382 -56.5q-88 0 -158.5 64.5t-70.5 118.5z" />
<glyph unicode="{" horiz-adv-x="851" d="M87 141q3 127 69.5 280.5t68.5 260.5q2 31 -32 80q-55 45 -56 96q0 14 7.5 29.5t19.5 15.5t74.5 -36t97.5 -36q119 0 123 113q0 35 -49 186q-119 362 65 531q109 100 245 100t214 -75.5t76 -180.5q0 -51 -31 -101t-55.5 -50t-28.5 22.5t-4 53.5v38q4 133 -137 134 q-96 0 -165 -64.5t-71 -172.5t20.5 -194t46 -153.5t22.5 -132t-64.5 -127t-167.5 -62.5h-17q10 -31 9.5 -89t-54 -196.5t-55.5 -250t57.5 -156.5t184.5 -45q63 0 87.5 -11t24.5 -45t-56 -63.5t-130 -29.5q-143 0 -242.5 102t-96.5 229z" />
<glyph unicode="|" horiz-adv-x="731" d="M131 -145q0 39 178 845.5t178 923.5q0 33 9.5 47.5t38 14.5t74.5 -57.5t46 -125t-172 -788.5q-12 -49 -77 -342q-141 -643 -170 -643t-67 43t-38 82z" />
<glyph unicode="}" horiz-adv-x="1081" d="M160 -11.5q0 56.5 33 56.5q41 0 79 -49q14 -16 54.5 -31.5t107 -15.5t101 84t39 192.5t28 236.5t74.5 193q-66 31 -108 87.5t-42 116t37 119.5t89.5 115.5t105.5 110.5q125 137 125 240q0 78 -54.5 127t-118 49t-105.5 -26.5t-64 -57.5q-66 -84 -88.5 -84t-55 36 t-32.5 58q0 70 113.5 142.5t234.5 72.5t231.5 -96t110.5 -194.5t-58.5 -192.5t-128.5 -160q-184 -174 -184 -246q0 -53 41 -86q51 -37 147 -41q58 1 58 -22q0 -59 -82 -84q-55 -31 -80 -129t-34 -212t-28.5 -224.5t-83 -184t-175 -73.5t-199.5 58t-88 114.5z" />
<glyph unicode="~" horiz-adv-x="1218" d="M166 559q2 100 111 210t215 110q55 0 101 -36t75 -79q78 -119 151 -125q43 4 79 37t56 69q49 96 97.5 96.5t48.5 -69.5q-2 -96 -87 -193.5t-190 -97.5q-152 0 -319 262q-57 -25 -103.5 -68.5t-68.5 -80.5q-53 -96 -101 -96q-31 0 -49 16t-16 45z" />
<glyph unicode="&#xa1;" horiz-adv-x="708" d="M168 0q0 178 88 618.5t139 440.5q31 0 58.5 -34t23.5 -73q-117 -584 -117 -1015q0 -51 -30 -52q-33 -2 -97.5 43t-64.5 72zM401 1501q0 12 18.5 28.5t37.5 16.5q49 0 111.5 -61.5t62.5 -104.5t-33 -83t-67.5 -40t-82 97.5t-47.5 146.5z" />
<glyph unicode="&#xa2;" horiz-adv-x="974" d="M133 352q0 203 171 436.5t360 268.5q68 197 102 196q47 0 51 -75q0 -6 -31 -134q62 -28 103 -90.5t41 -105.5t-33 -43q-25 0 -75 43t-79 51q-33 -119 -97 -364.5t-85 -319.5q88 10 166 43t100 33q37 0 37 -39q0 -47 -116.5 -113.5t-233.5 -83.5q-59 -203 -84 -202 q-16 0 -34.5 21.5t-18.5 40.5t26 142q-109 23 -189.5 108t-80.5 187zM305 354q0 -59 35 -98t96 -45q82 367 166 649q-111 -76 -204 -233.5t-93 -272.5z" />
<glyph unicode="&#xa3;" horiz-adv-x="1327" d="M102 304q0 87 63.5 144.5t165 57.5t214.5 -90q47 127 84 246q-219 4 -223 47q-2 31 24.5 66.5t48.5 37.5q45 2 195 -4q102 326 202.5 444.5t247.5 118.5q96 0 159 -70.5t63 -164.5q0 -43 -48.5 -88t-79 -45.5t-30.5 32.5l12 78q0 92 -86 92q-59 0 -115.5 -82t-138.5 -319 h45q178 0 227.5 -6t51.5 -35q2 -72 -355 -96l-16 -2q-61 -201 -139 -373q43 -41 71 -64q72 -63 147 -63t136.5 44t103.5 87t74.5 43t53 -23.5t20.5 -60.5q0 -66 -129 -151t-236 -85q-154 0 -313 144q-92 -133 -229 -133q-78 0 -174.5 93t-96.5 180zM262 295q0 -35 42 -82 t77 -47q45 0 104 113q-94 90 -143 90q-80 0 -80 -74z" />
<glyph unicode="&#xa4;" horiz-adv-x="1228" d="M186 227q0 14 154 168q-59 98 -53 226q12 127 98 233q-20 37 -49 88q-61 104 -61.5 122.5t6 28t41 9.5t88 -19.5t63.5 -52.5q4 -20 31 -80q82 43 165 43t148 -35q121 143 178 144q29 0 63 -30t34 -47t-7.5 -29.5t-26 -31t-31.5 -32.5t-44 -43t-47 -45q55 -92 47 -207 q-16 -162 -127 -275q98 -154 98 -178q0 -41 -45 -41q-59 0 -166 140q-76 -31 -150.5 -31t-141.5 39q-131 -150 -167 -150t-67 30.5t-31 55.5zM434 614q-10 -98 44 -167.5t136 -69.5t153 76.5t75 171.5q10 98 -43.5 171.5t-136 73.5t-152.5 -75.5t-76 -180.5z" />
<glyph unicode="&#xa5;" horiz-adv-x="1140" d="M72 412q6 41 362 71q12 55 19 115q-213 -20 -273 -18q-23 2 -44 37.5t-17 60.5q2 43 309 65q-74 131 -149.5 311.5t-75.5 260.5q0 47 37 47q43 0 85 -31t62 -80l53 -159q53 -160 121 -279q438 549 520 549q27 0 55.5 -22.5t28.5 -40t-29.5 -58.5t-87 -106.5t-108.5 -121 t-128 -139t-112 -120.5q291 6 291 -52.5t-375 -91.5q-8 -59 -20 -114q78 4 113 4q264 4 264 -39q0 -66 -410 -113v-4q-12 -51 -24.5 -108.5t-19.5 -90t-15 -63.5q-14 -53 -31 -53q-29 0 -68.5 36.5t-39.5 76.5t34 188q-160 -18 -264 -17q-23 2 -44 38t-19 61z" />
<glyph unicode="&#xa6;" horiz-adv-x="735" d="M133 -145q0 39 54.5 271t54.5 347q0 35 8 48.5t36.5 13.5t75 -57.5t46.5 -123t-69 -345t-103 -279.5q-27 0 -65 43t-38 82zM383 1005.5q0 38.5 54.5 270t54.5 348.5q0 35 8 48.5t36.5 13.5t74.5 -57.5t46 -124t-68.5 -345t-103.5 -278.5q-27 0 -64.5 43t-37.5 81.5z" />
<glyph unicode="&#xa7;" horiz-adv-x="935" d="M10 12q0 35 19.5 70t37 35t28.5 -11.5t27.5 -40t24.5 -38.5q59 -90 157.5 -90t135.5 40.5t37 104t-58.5 129t-127 117t-127 126t-58.5 150.5q0 109 87.5 204t199.5 148q-96 100 -96 187q0 127 117.5 225t253.5 98q92 0 152.5 -74.5t60.5 -169t-54 -94.5q-51 0 -77 93 q-10 33 -35 61.5t-64 28.5q-78 0 -133 -46t-55 -118t147 -193q61 -49 122 -103t104 -125t43 -142q0 -106 -91.5 -188.5t-230.5 -112.5q94 -104 94 -213t-92 -196t-229 -87t-228.5 71.5t-91.5 153.5zM276 600q0 -51 46.5 -97t61.5 -59.5t69 -60.5q117 8 185.5 71.5 t68.5 149.5q0 41 -34 89t-64.5 77t-100.5 86q-231 -113 -232 -256z" />
<glyph unicode="&#xa8;" horiz-adv-x="0" d="M-190 1549q0 38 27.5 71t59 33t73.5 -77t42 -107.5t-17.5 -48t-33.5 -17.5q-43 0 -97 54t-54 92zM111 1548q0 39 28.5 72t60 33t72.5 -77t41 -107.5t-16 -48t-33 -17.5q-45 0 -99 53t-54 92z" />
<glyph unicode="&#xa9;" horiz-adv-x="1449" d="M166 633q0 279 226 499t505 220q240 0 383 -148.5t143 -376.5q0 -303 -216 -503.5t-533 -200.5q-242 0 -375 143.5t-133 366.5zM301 581.5q0 -161.5 96.5 -258t253.5 -96.5q293 0 463 162t170 457q0 174 -97 286.5t-243 112.5q-109 0 -221.5 -44t-206.5 -124t-154.5 -207 t-60.5 -288.5zM483 596q0 88 67.5 213t175.5 216t206 91q33 0 66.5 -37t33.5 -66.5t-26 -29.5q-10 0 -33 8t-39 8q-84 0 -206 -142t-122 -275q0 -41 28 -65.5t92.5 -24.5t158.5 43t102 43q29 0 29 -33q0 -43 -108.5 -107.5t-194.5 -64.5t-158 67.5t-72 155.5z" />
<glyph unicode="&#xaa;" horiz-adv-x="954" d="M184 1056.5q0 69.5 31 159t83 174.5t132 144t167 59t156.5 -75t69.5 -136q0 -29 -12 -59q2 -4 2 -18.5t-18.5 -107.5t-21.5 -142t-3 -83t-1 -50.5t-3 -34.5q-6 -33 -29 -33q-29 0 -54.5 47t-29.5 111q-127 -158 -260 -158q-80 0 -144.5 66.5t-64.5 136zM317 1065 q0 -86 84 -86q78 0 170.5 107.5t137.5 269.5q-6 39 -35 72.5t-72 33.5q-100 0 -192.5 -143t-92.5 -254z" />
<glyph unicode="&#xab;" horiz-adv-x="1400" d="M82 633q0 29 24.5 69.5t47.5 59.5q88 70 299.5 163t291.5 93q37 0 69 -21.5t32 -42.5q0 -31 -72 -53q-186 -59 -356 -135t-170 -119q0 -33 131 -95.5t262 -122.5t131 -85q0 -39 -83 -39t-345 128t-262 200zM672 643q0 25 26.5 62.5t53.5 58.5q84 61 311 134t319 73 q37 0 69 -24.5t32 -47.5q-2 -31 -74 -49q-207 -43 -387 -103.5t-180 -103.5q0 -29 132 -83t263 -107.5t131 -81.5q0 -37 -67.5 -37t-219 53t-280.5 129t-129 127z" />
<glyph unicode="&#xac;" horiz-adv-x="1015" d="M4 945q0 40 35 40q18 0 88 -2q160 -8 488.5 -8t387 -16.5t87 -72t28.5 -129t-68.5 -219t-159.5 -259t-145 -113.5q-37 0 -36 35q0 16 59 116q178 301 178 455q0 49 -135 49l-604 -4q-78 0 -140.5 44t-62.5 84z" />
<glyph unicode="&#xad;" horiz-adv-x="1228" d="M111 592q0 43 229 85t368.5 42t139.5 -49q0 -33 -65.5 -51.5t-201 -45t-212 -43t-112.5 -23.5t-61.5 -7t-55 31.5t-29.5 60.5z" />
<glyph unicode="&#xae;" horiz-adv-x="1570" d="M193 633q0 279 226 499t505 220q240 0 383 -148.5t143 -376.5q0 -303 -216 -503.5t-534 -200.5q-242 0 -374.5 143.5t-132.5 366.5zM328 606.5q0 -186.5 96 -283t254 -96.5q293 0 463 162t170 457q0 174 -97.5 286.5t-244 112.5t-290.5 -73.5t-247.5 -226t-103.5 -339z M569 476.5q0 23.5 53.5 208.5t61.5 273q-33 25 -33 54.5t67.5 54.5t149.5 25t144.5 -39t62.5 -113t-66.5 -132t-131.5 -87l-66 -27q0 -37 160 -164q66 -53 77 -68.5t11 -25.5t-12.5 -20t-30.5 -10q-49 0 -149.5 84.5t-147.5 160.5q-8 -27 -20.5 -69.5t-20.5 -69.5 t-17.5 -53.5t-17.5 -39.5t-20.5 -13t-33 23.5t-20.5 47zM750 758q16 10 65 35.5t77 42t53.5 46t25.5 60.5q0 45 -94 45q-45 0 -97 -18q4 -12 4 -41t-34 -170z" />
<glyph unicode="&#xaf;" horiz-adv-x="0" d="M-322 1251q0 39 148.5 55.5t429.5 26.5q72 2 98.5 -7t28.5 -32q2 -28 -54.5 -42.5t-186.5 -35t-195.5 -31.5t-98 -17.5t-63.5 -7.5t-67.5 31t-39.5 60z" />
<glyph unicode="&#xb0;" horiz-adv-x="675" d="M170 1171q33 129 135.5 221.5t217 92.5t174 -92.5t30.5 -221.5q-33 -129 -135.5 -221t-218 -92t-175 92t-28.5 221zM320.5 1167.5q-17.5 -71.5 8 -125t78 -53.5t101.5 53.5t61 122.5q20 72 -6 126.5t-77.5 54.5t-99.5 -53.5t-65.5 -125z" />
<glyph unicode="&#xb1;" horiz-adv-x="1228" d="M162 235.5q0 30.5 39 30.5q221 0 379.5 13.5t228.5 19.5t162 8q166 6 166 -35q0 -72 -324 -108.5t-545 -36.5q-39 0 -72.5 39t-33.5 69.5zM203 914.5q0 37.5 51 37.5q287 0 379 6q23 184 31 324q2 27 13 41t25 12q33 0 85.5 -50t52.5 -79q-4 -55 -41 -231q246 20 301 20 q125 0 125 -49q0 -78 -459 -129q-66 -336 -83 -373.5t-32 -40.5q-29 0 -59.5 37t-28.5 71t8.5 74t17.5 104.5t19 115.5q-154 -12 -284 -12q-43 0 -82 42t-39 79.5z" />
<glyph unicode="&#xb2;" horiz-adv-x="624" d="M124 826.5q1 27.5 59.5 77.5t129 103.5t129 130t58.5 150.5t-64 74q-39 0 -83 -40t-56 -40t-41 18.5t-29 36.5q0 43 66.5 91.5t143.5 48.5t127 -53.5t50 -133.5q0 -223 -346 -446q272 39 279 39q74 0 74 -37t-154 -73t-234 -36q-35 0 -72.5 31t-36.5 58.5z" />
<glyph unicode="&#xb3;" horiz-adv-x="641" d="M115 788q0 18 97 39t194.5 59t97.5 97q0 29 -61.5 43t-123 26.5t-61.5 37.5q0 18 14 28q18 20 86 57t120 77t52 85q0 35 -43 35t-102 -33.5t-75.5 -33.5t-40 23.5t-23.5 41.5q0 37 82 72t151.5 35t115.5 -46.5t46 -102.5t-56.5 -111.5t-133.5 -96.5q82 -16 132 -52 t50 -87q0 -96 -133 -167t-259 -71t-126 45z" />
<glyph unicode="&#xb4;" horiz-adv-x="0" d="M16 1370q-41 49 33 119l223 221q49 45 99 -10q31 -37 29.5 -80t-27.5 -61q-248 -180 -256 -184.5t-17.5 -9.5t-15.5 -7t-14.5 -5t-14.5 -2t-14 1q-8 2 -25 18z" />
<glyph unicode="&#xb5;" horiz-adv-x="1208" d="M-53 -350.5q0 18.5 31.5 95.5t101.5 245t124 317.5t114.5 350t95.5 292.5t61.5 92t62 -21.5t35.5 -39.5q0 -39 -43 -162q-127 -367 -127 -553q0 -35 21.5 -58.5t52.5 -23.5q88 0 206 159t201 341t100 259t25.5 88t36 11t66.5 -57t31 -108q0 -8 -89 -310.5t-136 -447.5 q-27 -86 -70 -86q-27 0 -43.5 24.5t-13 83t46.5 209.5q-82 -135 -179.5 -226t-191.5 -91q-61 0 -103 36.5t-49 92.5q-20 -45 -58 -134t-67.5 -156t-62.5 -136q-68 -145 -96.5 -145.5t-56 20t-27.5 39z" />
<glyph unicode="&#xb6;" horiz-adv-x="1050" d="M139 952q0 156 104.5 341.5t252.5 248.5q61 29 187 47.5t195.5 18.5t99.5 -10.5t63.5 -62.5t31.5 -101q-8 -346 -190 -1031q-109 -371 -142 -370q-25 0 -57.5 29.5t-28.5 58.5q246 973 279 1372q-16 -4 -191 -39q2 -8 2 -22q-8 -344 -190 -1029q-113 -371 -140.5 -370.5 t-59 30t-27.5 58.5q18 78 81.5 322.5t96.5 385.5q-96 -76 -173 -75.5t-135.5 64.5t-58.5 134z" />
<glyph unicode="&#xb7;" horiz-adv-x="485" d="M119 678q0 43 33.5 85t70.5 42t86 -98.5t49 -149.5q0 -14 -21.5 -32.5t-39.5 -18.5q-51 0 -114.5 64.5t-63.5 107.5z" />
<glyph unicode="&#xb8;" horiz-adv-x="0" d="M-242 -342q0 23 57.5 35t132.5 31.5t103 56.5q-14 23 -77.5 37t-88.5 32q-12 14 0.5 46t40 90.5t39.5 101.5t67.5 43t55.5 -50t-68 -161q74 8 152 -43q47 -31 49 -70q2 -70 -93 -128t-253 -66q-117 -4 -117 45z" />
<glyph unicode="&#xb9;" horiz-adv-x="313" d="M162 794.5q0 16.5 35.5 221.5t42.5 428q0 20 8 30.5t25.5 9.5t53 -34t33.5 -51q0 -113 -22.5 -226.5t-29.5 -160.5t-12 -76t-12.5 -65.5t-13.5 -59.5t-14 -43q-16 -39 -33 -39q-20 2 -40.5 25.5t-20.5 40z" />
<glyph unicode="&#xba;" d="M215 1157q0 164 109.5 300t265.5 136q104 0 165.5 -96t61.5 -230t-110.5 -270.5t-280.5 -136.5q-90 0 -150.5 91t-60.5 206zM348 1146q0 -114 82 -175q117 18 186.5 105t69.5 219t-96 184q-117 -29 -179.5 -124t-62.5 -209z" />
<glyph unicode="&#xbb;" horiz-adv-x="1705" d="M172 350q0 31 144.5 95.5l289 129t144.5 95.5q0 41 -134.5 95t-273.5 81q-82 18 -82 47q0 18 32.5 48t57.5 30q117 0 340 -106.5t223 -202.5q0 -51 -142 -135.5t-307 -146t-228.5 -61.5t-63.5 31zM754 331.5q0 30.5 283.5 163t283.5 162.5q0 45 -131 122t-235.5 109 t-104.5 58q0 18 28.5 45t53.5 27q106 -2 326.5 -133.5t220.5 -227.5q0 -55 -39 -88q-84 -70 -311.5 -169t-301 -99t-73.5 30.5z" />
<glyph unicode="&#xbc;" horiz-adv-x="1593" d="M141 59q18 84 820 1211q102 147 131.5 188t37 51.5t10.5 14.5t8 10t7 6t9 3t12 -1q25 -6 51 -55t16 -92t-90 -154t-222.5 -296t-261 -356t-199.5 -287t-142.5 -199t-87 -109.5t-43 -22.5t-40 35t-16.5 53zM248 694q0 6 45 266.5t53 548.5q0 41 30 41t74 -37.5t44 -62.5 q-2 -156 -50 -397q-6 -35 -16 -95.5t-16 -94.5t-15.5 -82t-16.5 -74.5t-15 -53.5q-16 -51 -35 -51q-23 2 -52.5 30.5t-29.5 61.5zM813 426q0 82 79 218t166 238.5t113.5 102.5t52 -25.5t25.5 -47t-73 -113.5q-225 -276 -226 -365q0 -66 64 -65q63 0 147 32.5t103 38.5 q12 86 12 183q0 47 41 47q23 0 60.5 -38t37.5 -67q0 -133 -76.5 -389t-130.5 -256q-23 0 -38 22.5t-15 46t12 64.5q53 176 68 240q-117 -49 -214 -49t-152.5 50t-55.5 132z" />
<glyph unicode="&#xbd;" horiz-adv-x="1593" d="M106 59q18 84 820 1211q102 147 131.5 188t37 51.5t10.5 14.5t8 10t7 6t9.5 3t11.5 -1q25 -6 51.5 -55t17 -92t-89.5 -154t-223 -296t-262 -356t-200 -287t-142.5 -199t-87 -109.5t-43 -22.5t-40 35t-16.5 53zM213 694q0 6 45 266.5t53 548.5q0 41 30 41t75 -37.5 t45 -62.5q-2 -145 -51 -397q-6 -35 -16.5 -95.5t-16.5 -94.5t-15.5 -82t-16.5 -74.5t-15 -53.5q-16 -51 -35 -51q-23 2 -52.5 30.5t-29.5 61.5zM752 80q0 23 50 66.5t120.5 99t142.5 119t121 141.5t49 139q0 119 -84 119q-66 0 -139 -76q-25 -27 -40.5 -26.5t-51 23 t-35.5 42.5q0 51 85 112.5t181 61.5t159.5 -67.5t63.5 -165.5q0 -160 -133 -309.5t-336 -274.5q344 55 387 55q90 0 90 -39q0 -45 -196.5 -91t-296.5 -46q-43 0 -90 38t-47 79z" />
<glyph unicode="&#xbe;" horiz-adv-x="1773" d="M176 739q0 25 250 80q92 20 170 65.5t78 104.5q0 41 -79 60.5t-157 34t-78 42.5q0 14 7 21q12 27 99 74t163 104t76 117q0 53 -56.5 53t-132.5 -43t-96.5 -43t-49 27.5t-28.5 48.5q0 43 104.5 88t189.5 45t145.5 -58.5t60.5 -129t-77 -142t-181 -125.5q110 -18 177.5 -64 t67.5 -118t-83.5 -142.5t-201.5 -109.5t-243 -39t-125 49zM360 59q18 86 859 1264q111 152 123 172.5t15 24.5t7 10t6 7t7 4t8.5 2t9.5 -1q25 -6 52.5 -55t17 -92t-89.5 -154t-223 -296t-262 -355t-199 -287t-142.5 -200t-88 -109.5t-44 -22.5t-39 34t-17.5 54zM1034 426 q0 82 78 218t166 238.5t114.5 102.5t51 -25.5t24.5 -47t-75 -113.5q-221 -274 -222 -365q0 -66 62 -65q68 0 152.5 33.5t97.5 37.5q12 86 12 183q0 47 41 47q23 0 59.5 -38t36.5 -67q0 -133 -77.5 -389t-131.5 -256q-23 0 -36 22.5t-13 46t12 64.5q53 174 68 238 q-119 -47 -215 -47t-150.5 50t-54.5 132z" />
<glyph unicode="&#xbf;" horiz-adv-x="774" d="M-2 125q0 82 56.5 174t125.5 164q207 205 257 325.5t65.5 135t29.5 14.5q51 0 52 -123q0 -131 -150 -287q-61 -66 -123 -131q-147 -154 -147 -266q0 -68 48 -109.5t113.5 -41.5t114.5 41t49 102l-8 59q0 10 13.5 26.5t56.5 16.5q23 0 58.5 -46t35.5 -79 q0 -113 -99.5 -199.5t-231.5 -86.5t-224 85t-92 226zM500 1386q0 12 19.5 29t37.5 17q49 0 110.5 -61.5t61.5 -104.5t-31.5 -83t-66.5 -40t-83 97t-48 146z" />
<glyph unicode="&#xc0;" horiz-adv-x="1208" d="M127 139q0 16 117 279q-41 0 -71 22.5t-30 59.5t176 96q27 59 54.5 129t110.5 257t102.5 243.5t74 92.5t109.5 36q61 0 109.5 -182.5t76.5 -444.5q49 4 68 4q113 0 113 -47q0 -33 -168 -80q20 -215 16 -319q-4 -256 -65 -256q-39 0 -56 43q-29 80 -34 146.5t-9 117.5 t-9 126t-7 99q-180 -45 -258 -66.5t-101 -27.5q-92 -233 -139 -335.5t-76.5 -102.5t-66.5 35.5t-37 74.5zM473 1733q0 43 33 75q55 59 104 9l207 -218q31 -31 39 -63.5t-8.5 -52t-30.5 -23.5t-35 6q-33 20 -57 39l-225 166q-27 19 -27 62zM518 651q123 31 273 56 q-25 231 -68 440q-99 -217 -205 -496z" />
<glyph unicode="&#xc1;" horiz-adv-x="1208" d="M127 139q0 16 117 279q-41 0 -71 22.5t-30 59.5t176 96q27 59 54.5 129t110.5 257t102.5 243.5t74 92.5t109.5 36q61 0 109.5 -182.5t76.5 -444.5q49 4 68 4q113 0 113 -47q0 -33 -168 -80q20 -215 16 -319q-4 -256 -65 -256q-39 0 -56 43q-29 80 -34 146.5t-9 117.5 t-9 126t-7 99q-180 -45 -258 -66.5t-101 -27.5q-92 -233 -139 -335.5t-76.5 -102.5t-66.5 35.5t-37 74.5zM518 651q123 31 273 56q-25 231 -68 440q-99 -217 -205 -496zM737 1481q-41 49 33 118l223 222q49 45 99 -11q31 -37 30 -80t-28 -61q-248 -180 -256.5 -184 t-17.5 -9.5t-15 -7.5t-14.5 -5t-14.5 -2t-14 1q-8 2 -25 19z" />
<glyph unicode="&#xc2;" horiz-adv-x="1208" d="M127 139q0 16 117 279q-41 0 -71 22.5t-30 59.5t176 96q27 59 54.5 129t110.5 257t102.5 243.5t74 92.5t109.5 36q61 0 109.5 -182.5t76.5 -444.5q49 4 68 4q113 0 113 -47q0 -33 -168 -80q20 -215 16 -319q-4 -256 -65 -256q-39 0 -56 43q-29 80 -34 146.5t-9 117.5 t-9 126t-7 99q-180 -45 -258 -66.5t-101 -27.5q-92 -233 -139 -335.5t-76.5 -102.5t-66.5 35.5t-37 74.5zM444 1511q0 74 142 152q23 12 55.5 32.5t53 33t42.5 24.5q49 25 68.5 25t37 -10.5t25.5 -20.5q35 -37 59.5 -68.5t51.5 -62.5t41 -47.5t33 -38.5q31 -41 30.5 -64.5 t-15.5 -36t-31.5 -12.5t-29 4t-25.5 13.5t-24.5 17.5t-27 24.5t-25.5 28t-26.5 31.5t-25.5 31.5t-25.5 33t-24.5 31.5q-57 -31 -121 -80t-105.5 -78.5t-69.5 -29.5t-45.5 16.5t-17.5 50.5zM518 651q123 31 273 56q-25 231 -68 440q-99 -217 -205 -496z" />
<glyph unicode="&#xc3;" horiz-adv-x="1208" d="M127 139q0 16 117 279q-41 0 -71 22.5t-30 59.5t176 96q27 59 54.5 129t110.5 257t102.5 243.5t74 92.5t109.5 36q61 0 109.5 -182.5t76.5 -444.5q49 4 68 4q113 0 113 -47q0 -33 -168 -80q20 -215 16 -319q-4 -256 -65 -256q-39 0 -56 43q-29 80 -34 146.5t-9 117.5 t-9 126t-7 99q-180 -45 -258 -66.5t-101 -27.5q-92 -233 -139 -335.5t-76.5 -102.5t-66.5 35.5t-37 74.5zM461 1526q2 76 79.5 155.5t157.5 79.5q47 0 83 -23.5t55 -54.5q49 -80 88 -86q37 4 80 71t79 67q49 0 48 -68t-63 -139.5t-140 -71.5q-111 0 -223 176 q-50 -22 -99 -93t-80.5 -71t-49 15.5t-15.5 42.5zM518 651q123 31 273 56q-25 231 -68 440q-99 -217 -205 -496z" />
<glyph unicode="&#xc4;" horiz-adv-x="1208" d="M127 139q0 16 117 279q-41 0 -71 22.5t-30 59.5t176 96q27 59 54.5 129t110.5 257t102.5 243.5t74 92.5t109.5 36q61 0 109.5 -182.5t76.5 -444.5q49 4 68 4q113 0 113 -47q0 -33 -168 -80q20 -215 16 -319q-4 -256 -65 -256q-39 0 -56 43q-29 80 -34 146.5t-9 117.5 t-9 126t-7 99q-180 -45 -258 -66.5t-101 -27.5q-92 -233 -139 -335.5t-76.5 -102.5t-66.5 35.5t-37 74.5zM518 651q123 31 273 56q-25 231 -68 440q-99 -217 -205 -496zM530 1598.5q0 37.5 28 70.5t59.5 33t73.5 -77t42 -107.5t-17.5 -48t-33.5 -17.5q-43 0 -97.5 54.5 t-54.5 92zM831 1597.5q0 38.5 29 71.5t60.5 33t72.5 -77t41 -107.5t-16.5 -48t-32.5 -17.5q-45 0 -99.5 53.5t-54.5 92z" />
<glyph unicode="&#xc5;" horiz-adv-x="1208" d="M127 139q0 16 117 279q-41 0 -71 22.5t-30 59.5t176 96q27 59 54.5 129t110.5 257t102.5 243.5t74 92.5t109.5 36q61 0 109.5 -182.5t76.5 -444.5q49 4 68 4q113 0 113 -47q0 -33 -168 -80q20 -215 16 -319q-4 -256 -65 -256q-39 0 -56 43q-29 80 -34 146.5t-9 117.5 t-9 126t-7 99q-180 -45 -258 -66.5t-101 -27.5q-92 -233 -139 -335.5t-76.5 -102.5t-66.5 35.5t-37 74.5zM518 651q123 31 273 56q-25 231 -68 440q-99 -217 -205 -496zM637 1632q10 80 66.5 138.5t129 58.5t118.5 -58.5t36 -138.5t-67.5 -138t-129 -58t-117.5 58t-36 138z M748.5 1629q-5.5 -36 11 -62.5t42 -26.5t47 26.5t25 62.5t-12 62.5t-42 26.5t-46 -26.5t-25 -62.5z" />
<glyph unicode="&#xc6;" horiz-adv-x="1617" d="M-8 128q0 32 32.5 109.5t96 220t149.5 357.5t176 420q35 78 157 102.5t349.5 24.5t356.5 -11.5t172 -29.5t37 -47q-6 -35 -101.5 -52.5t-376.5 -25.5h-12q6 -18 6 -39q0 -129 -76 -401q139 12 202 12t88.5 -2t54.5 -8q57 -12 57 -51q0 -33 -98.5 -53.5t-348.5 -53.5 q-98 -319 -98 -367q0 -41 47 -40q223 0 490 67q90 23 104 23q35 0 35 -45q0 -74 -212 -142.5t-415 -68.5q-102 0 -166.5 50t-64.5 129t86 367q-84 -8 -227 -34.5t-170 -28.5q-158 -387 -191 -434t-55.5 -47t-53 33.5t-30.5 65.5zM387 674q137 32 381 61q86 287 94 455 q-231 -10 -254 -33q-43 -43 -221 -483z" />
<glyph unicode="&#xc7;" horiz-adv-x="1171" d="M127 397q0 176 120 397.5t308 383t363 161.5q55 0 110 -62.5t55 -105.5t-28 -43q-14 0 -52 14.5t-75 14.5q-72 0 -177.5 -72.5t-200.5 -180t-163 -249t-68 -262.5q0 -78 54.5 -128t156 -50t215 39t186.5 78t93 39q35 0 35 -45q0 -66 -186.5 -175.5t-344.5 -117.5 q-20 -49 -53 -105q74 8 152 -43q47 -31 49 -69q2 -70 -93.5 -128.5t-252.5 -66.5q-117 -4 -117 45q0 23 57.5 35t132 31.5t103.5 56.5q-14 23 -77.5 37t-88.5 33q-12 35 20 92q27 53 43 102q-113 41 -194.5 140.5t-81.5 203.5z" />
<glyph unicode="&#xc8;" horiz-adv-x="1130" d="M121 206q0 77 57.5 261t114.5 392t57 349q0 33 12 52q39 70 427.5 69.5t388.5 -61.5q0 -41 -84 -56q-66 -12 -183.5 -20t-154.5 -12t-234 -33v-4q0 -135 -71 -379h45l360 18q78 0 78 -32q0 -133 -526 -134q-106 -332 -107 -383q0 -41 47 -40q225 0 492 67q90 23 104 23 q35 0 35 -45q0 -74 -213 -142.5t-416 -68.5q-90 0 -159.5 51t-69.5 128zM508 1733q0 43 33 75q55 59 104 9l207 -218q31 -31 39 -63.5t-8.5 -52t-30.5 -23.5t-35 6q-33 20 -57 39l-225 166q-27 19 -27 62z" />
<glyph unicode="&#xc9;" horiz-adv-x="1130" d="M121 206q0 77 57.5 261t114.5 392t57 349q0 33 12 52q39 70 427.5 69.5t388.5 -61.5q0 -41 -84 -56q-66 -12 -183.5 -20t-154.5 -12t-234 -33v-4q0 -135 -71 -379h45l360 18q78 0 78 -32q0 -133 -526 -134q-106 -332 -107 -383q0 -41 47 -40q225 0 492 67q90 23 104 23 q35 0 35 -45q0 -74 -213 -142.5t-416 -68.5q-90 0 -159.5 51t-69.5 128zM772 1481q-41 49 33 118l223 222q49 45 98 -11q31 -37 30 -80t-28 -61q-248 -180 -256 -184t-17 -9.5t-15 -7.5t-14.5 -5t-14.5 -2t-12 1q-10 2 -27 19z" />
<glyph unicode="&#xca;" horiz-adv-x="1130" d="M121 206q0 77 57.5 261t114.5 392t57 349q0 33 12 52q39 70 427.5 69.5t388.5 -61.5q0 -41 -84 -56q-66 -12 -183.5 -20t-154.5 -12t-234 -33v-4q0 -135 -71 -379h45l360 18q78 0 78 -32q0 -133 -526 -134q-106 -332 -107 -383q0 -41 47 -40q225 0 492 67q90 23 104 23 q35 0 35 -45q0 -74 -213 -142.5t-416 -68.5q-90 0 -159.5 51t-69.5 128zM479 1511q0 74 142 152q23 12 55.5 32.5t53 33t44.5 24.5q47 25 66.5 25t37 -10.5t27.5 -20.5q33 -37 57.5 -68.5t51 -62.5t41 -47.5t30.5 -38.5q33 -41 33 -64.5t-15.5 -36t-31.5 -12.5t-28.5 4 t-25.5 13.5t-24.5 17.5t-27 24.5t-25.5 28t-26.5 31.5t-25.5 31.5t-25.5 33t-24.5 31.5q-57 -31 -121 -80t-106 -78.5t-69.5 -29.5t-45 16.5t-17.5 50.5z" />
<glyph unicode="&#xcb;" horiz-adv-x="1130" d="M121 206q0 77 57.5 261t114.5 392t57 349q0 33 12 52q39 70 427.5 69.5t388.5 -61.5q0 -41 -84 -56q-66 -12 -183.5 -20t-154.5 -12t-234 -33v-4q0 -135 -71 -379h45l360 18q78 0 78 -32q0 -133 -526 -134q-106 -332 -107 -383q0 -41 47 -40q225 0 492 67q90 23 104 23 q35 0 35 -45q0 -74 -213 -142.5t-416 -68.5q-90 0 -159.5 51t-69.5 128zM565 1598.5q0 37.5 28 70.5t59.5 33t73.5 -77t42 -107.5t-17.5 -48t-33.5 -17.5q-45 0 -98.5 54.5t-53.5 92zM866 1597.5q0 38.5 29 71.5t60.5 33t72.5 -77t41 -107.5t-16.5 -48t-32.5 -17.5 q-45 0 -99.5 53.5t-54.5 92z" />
<glyph unicode="&#xcc;" horiz-adv-x="575" d="M109 156q0 39 111.5 521t111.5 599q0 35 8 48t37 13t75 -57t46 -113q0 -100 -131 -624q-14 -57 -36 -145.5t-35 -142.5t-30 -112q-33 -111 -53 -110q-29 0 -66.5 42t-37.5 81zM188 1733q0 43 33 75q55 59 105 9l206 -218q31 -31 39.5 -63.5t-8 -52t-31 -23.5t-34.5 6 q-33 20 -58 39l-225 166q-27 19 -27 62z" />
<glyph unicode="&#xcd;" horiz-adv-x="575" d="M109 156q0 39 111.5 521t111.5 599q0 35 8 48t37 13t75 -57t46 -113q0 -100 -131 -624q-14 -57 -36 -145.5t-35 -142.5t-30 -112q-33 -111 -53 -110q-29 0 -66.5 42t-37.5 81zM453 1481q-41 49 32 118l224 222q49 45 98 -11q31 -37 30 -79.5t-28 -61.5 q-248 -180 -256 -184t-17.5 -9.5t-15.5 -7.5t-14 -5t-14.5 -2t-12.5 1q-10 2 -26 19z" />
<glyph unicode="&#xce;" horiz-adv-x="575" d="M109 156q0 39 111.5 521t111.5 599q0 35 8 48t37 13t75 -57t46 -113q0 -100 -131 -624q-14 -57 -36 -145.5t-35 -142.5t-30 -112q-33 -111 -53 -110q-29 0 -66.5 42t-37.5 81zM160 1511q0 74 141 152q23 12 55.5 32.5t53 33t45.5 24.5q47 25 66.5 25t36.5 -10.5t28 -20.5 q33 -37 57.5 -68.5t51 -62.5t41 -47.5t31.5 -39t24.5 -39.5t7.5 -32.5t-15.5 -28t-32 -12.5t-28.5 4t-25.5 13.5t-24.5 17.5t-26.5 24.5t-26 28t-26.5 31.5t-25.5 31.5t-26 33t-24.5 31.5q-57 -31 -120.5 -80t-105.5 -78.5t-69.5 -29.5t-45 16.5t-17.5 50.5z" />
<glyph unicode="&#xcf;" horiz-adv-x="575" d="M109 156q0 39 111.5 521t111.5 599q0 35 8 48t37 13t75 -57t46 -113q0 -100 -131 -624q-14 -57 -36 -145.5t-35 -142.5t-30 -112q-33 -111 -53 -110q-29 0 -66.5 42t-37.5 81zM246 1598.5q0 37.5 27.5 70.5t59.5 33t74 -77t42 -107.5t-17.5 -48t-34.5 -17.5 q-45 0 -98 54.5t-53 92zM547 1597.5q0 38.5 28.5 71.5t60.5 33t73 -77t41 -107.5t-16.5 -48t-33.5 -17.5q-45 0 -99 53.5t-54 92z" />
<glyph unicode="&#xd0;" horiz-adv-x="1259" d="M56 595.5q-7 22.5 18 43.5q-4 20 211 68q78 276 88 413q-55 25 -90 64t-35 69q0 43 45 43q129 0 279.5 -53t278.5 -141t214 -217t86 -264q0 -88 -96.5 -202t-231.5 -207t-286.5 -157.5t-253.5 -64.5q-39 0 -85 60.5t-46 121.5t94 395q-147 -8 -148 2q-35 4 -42 26.5z M330 172q129 20 283.5 110.5t256 192t101.5 160.5q0 119 -137.5 256t-309.5 190q8 -41 8 -61q0 -78 -61 -293q141 0 143 -12q43 0 62.5 -18.5t5.5 -43.5q4 -23 -252 -65l-47 -164q-41 -141 -53 -252z" />
<glyph unicode="&#xd1;" horiz-adv-x="1304" d="M94 170q0 45 125 516t125 590q0 33 9 47t34 14t63.5 -35.5t52 -68.5t87.5 -209q182 -444 303 -711q63 174 101 349.5t46 285.5q23 295 36.5 344t50 49t79.5 -48t43 -89q2 -160 -46 -434t-132 -505.5t-166 -231.5q-27 0 -61.5 27.5t-54 66.5t-82 186.5t-139 329.5 t-109.5 258q-53 -199 -124 -467t-92.5 -334.5t-47 -66.5t-63.5 46t-38 91zM467 1526q2 76 80 155.5t158 79.5q47 0 82.5 -23.5t54.5 -54.5q49 -80 88 -86q37 4 80 71t80 67q49 0 48 -68t-63.5 -139.5t-140.5 -71.5q-111 0 -223 176q-49 -23 -98.5 -93.5t-81 -70.5t-49 15.5 t-15.5 42.5z" />
<glyph unicode="&#xd2;" horiz-adv-x="1153" d="M104 395q0 174 61.5 349.5t155 304.5t207 209.5t211.5 80.5q154 0 257.5 -141t103.5 -320.5t-94.5 -374t-258 -332.5t-339.5 -138q-123 0 -213.5 118.5t-90.5 243.5zM276 427q0 -116 41 -177.5t103 -61.5q92 0 211 110t205 267.5t86 296.5t-51.5 224t-115 85 t-144.5 -69.5t-154.5 -174t-127 -244.5t-53.5 -256zM522 1733q0 43 33 75q55 59 104 9l207 -218q31 -31 39 -63.5t-8 -52t-30.5 -23.5t-35.5 6q-33 20 -57 39l-225 166q-27 19 -27 62z" />
<glyph unicode="&#xd3;" horiz-adv-x="1153" d="M104 395q0 174 61.5 349.5t155 304.5t207 209.5t211.5 80.5q154 0 257.5 -141t103.5 -320.5t-94.5 -374t-258 -332.5t-339.5 -138q-123 0 -213.5 118.5t-90.5 243.5zM276 427q0 -116 41 -177.5t103 -61.5q92 0 211 110t205 267.5t86 296.5t-51.5 224t-115 85 t-144.5 -69.5t-154.5 -174t-127 -244.5t-53.5 -256zM786 1481q-41 49 33 118l223 222q49 45 99 -11q31 -37 29.5 -79.5t-27.5 -61.5q-248 -180 -256 -184t-17.5 -9.5t-15.5 -7.5t-14.5 -5t-14.5 -2t-14 1q-8 2 -25 19z" />
<glyph unicode="&#xd4;" horiz-adv-x="1153" d="M104 395q0 174 61.5 349.5t155 304.5t207 209.5t211.5 80.5q154 0 257.5 -141t103.5 -320.5t-94.5 -374t-258 -332.5t-339.5 -138q-123 0 -213.5 118.5t-90.5 243.5zM276 427q0 -116 41 -177.5t103 -61.5q92 0 211 110t205 267.5t86 296.5t-51.5 224t-115 85 t-144.5 -69.5t-154.5 -174t-127 -244.5t-53.5 -256zM494 1511q0 74 141 152q23 12 55.5 32.5t53 33t42.5 24.5q47 25 67.5 25t38 -10.5t26.5 -20.5q35 -37 59 -68.5t51 -62.5t41 -47.5t31.5 -39t25 -39.5t7.5 -32.5t-15.5 -28t-32 -12.5t-29 4t-25.5 13.5t-24.5 17.5 t-26.5 24.5t-25.5 28t-27 31.5t-25.5 31.5t-25.5 33t-24.5 31.5q-57 -31 -120.5 -80t-105.5 -78.5t-70 -29.5t-45 16.5t-17 50.5z" />
<glyph unicode="&#xd5;" horiz-adv-x="1153" d="M104 395q0 174 61.5 349.5t155 304.5t207 209.5t211.5 80.5q154 0 257.5 -141t103.5 -320.5t-94.5 -374t-258 -332.5t-339.5 -138q-123 0 -213.5 118.5t-90.5 243.5zM276 427q0 -116 41 -177.5t103 -61.5q92 0 211 110t205 267.5t86 296.5t-51.5 224t-115 85 t-144.5 -69.5t-154.5 -174t-127 -244.5t-53.5 -256zM510 1526q2 76 80 155.5t158 79.5q47 0 82.5 -23.5t54.5 -54.5q49 -80 88 -86q37 4 80 71t80 67q49 0 48 -68t-63.5 -139.5t-140.5 -71.5q-111 0 -223 176q-49 -23 -98.5 -93.5t-81 -70.5t-49 15.5t-15.5 42.5z" />
<glyph unicode="&#xd6;" horiz-adv-x="1153" d="M104 395q0 174 61.5 349.5t155 304.5t207 209.5t211.5 80.5q154 0 257.5 -141t103.5 -320.5t-94.5 -374t-258 -332.5t-339.5 -138q-123 0 -213.5 118.5t-90.5 243.5zM276 427q0 -116 41 -177.5t103 -61.5q92 0 211 110t205 267.5t86 296.5t-51.5 224t-115 85 t-144.5 -69.5t-154.5 -174t-127 -244.5t-53.5 -256zM580 1598.5q0 37.5 27.5 70.5t59 33t73.5 -77t42 -107.5t-17 -48t-34 -17.5q-43 0 -97 54.5t-54 92zM881 1597.5q0 38.5 28.5 71.5t60 33t72.5 -77t41 -107.5t-16 -48t-33 -17.5q-45 0 -99 53.5t-54 92z" />
<glyph unicode="&#xd7;" horiz-adv-x="1011" d="M88 339.5q0 20.5 41 56.5t132 113t169 153q-102 141 -174 260.5t-72 149.5t6.5 39t44 9t95 -21.5t57.5 -54.5q0 -70 152 -272q209 221 252 259t67 56q47 35 76 35t63.5 -29.5t34.5 -56.5q0 -12 -56 -65t-166 -152.5t-179 -167.5q29 -37 75 -93t72.5 -91t55.5 -74 q55 -72 55 -90t-14.5 -30.5t-32.5 -12.5q-90 0 -320 285q-76 -74 -114.5 -112t-92.5 -85q-96 -88 -127.5 -88t-65.5 29.5t-34 50z" />
<glyph unicode="&#xd8;" horiz-adv-x="1175" d="M76 92.5q0 26.5 78 130.5q-49 88 -50 172q0 174 63.5 350.5t158 304.5t209 208.5t215.5 80.5q133 0 235 -102q106 113 156 113q20 0 33.5 -13.5t13.5 -33.5q0 -51 -88 -150l-31 -35q57 -115 57 -266.5t-98 -347t-267 -333.5t-343 -138q-100 0 -189 88q-74 -90 -99.5 -90 t-39.5 17.5t-14 44zM266 403q0 -23 2 -32q47 59 147.5 181t228.5 283.5t243 292.5q-49 61 -114.5 61.5t-149.5 -73.5t-164 -184.5t-136.5 -256t-56.5 -272.5zM317 229q43 -53 101 -53q96 0 225 118t220 283.5t91 292.5q0 66 -8 109q-315 -360 -629 -750z" />
<glyph unicode="&#xd9;" horiz-adv-x="1112" d="M109 403.5q0 145.5 80.5 452.5t80.5 422q0 61 43 61q35 0 84 -53t49 -119.5t-78.5 -345t-78.5 -385t34.5 -169t98.5 -62.5q84 0 180 114.5t167 314.5t71 408q0 104 -8.5 171t-8.5 81q0 45 41 45t102.5 -60t63.5 -132q6 -287 -80 -546t-233.5 -414.5t-310.5 -155.5 q-123 0 -210 113.5t-87 259zM393 1733q0 43 33 75q55 59 104 9l207 -218q31 -31 39 -63.5t-8 -52t-30.5 -23.5t-35.5 6q-33 20 -57 39l-225 166q-27 19 -27 62z" />
<glyph unicode="&#xda;" horiz-adv-x="1112" d="M109 403.5q0 145.5 80.5 452.5t80.5 422q0 61 43 61q35 0 84 -53t49 -119.5t-78.5 -345t-78.5 -385t34.5 -169t98.5 -62.5q84 0 180 114.5t167 314.5t71 408q0 104 -8.5 171t-8.5 81q0 45 41 45t102.5 -60t63.5 -132q6 -287 -80 -546t-233.5 -414.5t-310.5 -155.5 q-123 0 -210 113.5t-87 259zM657 1481q-41 49 33 118l223 222q49 45 99 -11q31 -37 29.5 -79.5t-27.5 -61.5q-248 -180 -256 -184t-17.5 -9.5t-15.5 -7.5t-14.5 -5t-14.5 -2t-12 1q-10 2 -27 19z" />
<glyph unicode="&#xdb;" horiz-adv-x="1112" d="M109 403.5q0 145.5 80.5 452.5t80.5 422q0 61 43 61q35 0 84 -53t49 -119.5t-78.5 -345t-78.5 -385t34.5 -169t98.5 -62.5q84 0 180 114.5t167 314.5t71 408q0 104 -8.5 171t-8.5 81q0 45 41 45t102.5 -60t63.5 -132q6 -287 -80 -546t-233.5 -414.5t-310.5 -155.5 q-123 0 -210 113.5t-87 259zM365 1511q0 74 141 152q23 12 55.5 32.5t53 33t44.5 24.5q47 25 66.5 25t37 -10.5t28.5 -20.5q33 -37 57 -68.5t51 -62.5t41 -47.5t31.5 -39t25 -39.5t7.5 -32.5t-15.5 -28t-32 -12.5t-29 4t-25.5 13.5t-24.5 17.5t-26.5 24.5t-25.5 28t-27 31.5 t-25.5 31.5t-25.5 33t-24.5 31.5q-57 -31 -120.5 -80t-105.5 -78.5t-70 -29.5t-45 16.5t-17 50.5z" />
<glyph unicode="&#xdc;" horiz-adv-x="1112" d="M109 403.5q0 145.5 80.5 452.5t80.5 422q0 61 43 61q35 0 84 -53t49 -119.5t-78.5 -345t-78.5 -385t34.5 -169t98.5 -62.5q84 0 180 114.5t167 314.5t71 408q0 104 -8.5 171t-8.5 81q0 45 41 45t102.5 -60t63.5 -132q6 -287 -80 -546t-233.5 -414.5t-310.5 -155.5 q-123 0 -210 113.5t-87 259zM451 1598.5q0 37.5 27.5 70.5t59 33t73.5 -77t42 -107.5t-17.5 -48t-33.5 -17.5q-45 0 -98 54.5t-53 92zM752 1597.5q0 38.5 28.5 71.5t60 33t72.5 -77t41 -107.5t-16 -48t-33 -17.5q-45 0 -99 53.5t-54 92z" />
<glyph unicode="&#xdd;" horiz-adv-x="1081" d="M125 1188q-10 152 82 151q35 0 55.5 -57t49 -165.5t71.5 -199t104.5 -147.5t104.5 -57q31 0 116 156.5t178 313t146 156.5q43 0 73 -31.5t30 -74.5t-69 -157.5t-191.5 -304t-194.5 -316.5q-168 -313 -213 -367.5t-76 -54.5q-49 0 -49 80t186 432q-160 47 -269 227 t-134 416zM610 1481q-41 49 33 118l223 222q49 45 99 -11q31 -37 29.5 -79.5t-27.5 -61.5q-248 -180 -256.5 -184t-17.5 -9.5t-15 -7.5t-14.5 -5t-14.5 -2t-14 1q-8 2 -25 19z" />
<glyph unicode="&#xde;" horiz-adv-x="1024" d="M106 155q0 42 54 248q164 621 164 875q0 35 8 48t38.5 13t76 -50t45.5 -101t-17 -150q66 19 119 19q117 0 224.5 -99.5t107.5 -216.5q0 -176 -190.5 -290.5t-424.5 -98.5q-84 -322 -118 -321q-27 0 -57 41t-30 83zM348 492q150 -12 287 64.5t137 180.5q0 68 -57.5 112 t-128 44t-148.5 -37q-45 -203 -90 -364z" />
<glyph unicode="&#xdf;" horiz-adv-x="1193" d="M104 139q0 41 31 154q115 442 178 776q35 182 141.5 282.5t274.5 100.5q129 0 231.5 -119t102.5 -250q0 -78 -41 -139t-90 -88q-131 -74 -131 -98q0 -12 41 -47t91 -76t91 -111.5t41 -146.5q0 -154 -123 -248t-280 -94q-84 0 -132.5 30.5t-48 74.5t53.5 44l102 -4 q94 0 180 54.5t86 142.5q0 90 -100 180q-41 37 -82 72q-102 84 -103 153q0 27 43.5 57.5t93.5 58.5t93 74t43 115.5t-59.5 136t-131 66.5t-134 -74.5t-89.5 -201.5q-197 -983 -289 -983q-29 0 -56.5 33.5t-27.5 74.5z" />
<glyph unicode="&#xe0;" horiz-adv-x="1060" d="M96 279q0 125 94.5 305t243 319t277.5 139q98 0 184 -85t86 -179q0 -61 -49 -143q23 -31 22.5 -56.5t-29 -126t-38.5 -155.5t-13.5 -96t-6.5 -68t-7 -51q-8 -49 -43 -49q-74 0 -84 237q-86 -104 -189.5 -170.5t-193.5 -66.5t-172 78.5t-82 167.5zM254 276q0 -39 24.5 -61 t63.5 -25q113 -4 254 124t207 329q10 31 35 39v12q0 84 -29 136.5t-80 52.5q-86 0 -200.5 -115t-194.5 -259t-80 -233zM518 1425q0 43 33 76q55 59 104 8l207 -217q31 -31 39 -63.5t-8 -52t-30.5 -23.5t-35.5 6q-33 20 -57 39l-225 166q-27 18 -27 61z" />
<glyph unicode="&#xe1;" horiz-adv-x="1060" d="M96 279q0 125 94.5 305t243 319t277.5 139q98 0 184 -85t86 -179q0 -61 -49 -143q23 -31 22.5 -56.5t-29 -126t-38.5 -155.5t-13.5 -96t-6.5 -68t-7 -51q-8 -49 -43 -49q-74 0 -84 237q-86 -104 -189.5 -170.5t-193.5 -66.5t-172 78.5t-82 167.5zM254 276q0 -39 24.5 -61 t63.5 -25q113 -4 254 124t207 329q10 31 35 39v12q0 84 -29 136.5t-80 52.5q-86 0 -200.5 -115t-194.5 -259t-80 -233zM782 1174q-41 48 33 118l223 221q49 45 99 -10q31 -37 29.5 -80t-27.5 -61q-248 -180 -256.5 -184t-17.5 -9.5t-15 -7.5t-14.5 -5t-14.5 -2t-14 1 q-8 2 -25 19z" />
<glyph unicode="&#xe2;" horiz-adv-x="1060" d="M96 279q0 125 94.5 305t243 319t277.5 139q98 0 184 -85t86 -179q0 -61 -49 -143q23 -31 22.5 -56.5t-29 -126t-38.5 -155.5t-13.5 -96t-6.5 -68t-7 -51q-8 -49 -43 -49q-74 0 -84 237q-86 -104 -189.5 -170.5t-193.5 -66.5t-172 78.5t-82 167.5zM254 276q0 -39 24.5 -61 t63.5 -25q113 -4 254 124t207 329q10 31 35 39v12q0 84 -29 136.5t-80 52.5q-86 0 -200.5 -115t-194.5 -259t-80 -233zM489 1204q0 74 142 152q23 12 55.5 32.5t53 33t42.5 24.5q49 25 68.5 24.5t37 -10.5t25.5 -20q35 -37 59.5 -69t51.5 -62.5t41 -47t31.5 -39t24.5 -40 t7 -32.5t-15 -27.5t-31.5 -12.5t-29 4t-25.5 13.5t-24.5 17.5t-26.5 24.5t-25.5 27.5t-27 31.5t-25.5 32t-25.5 33t-24.5 31.5q-57 -31 -120.5 -80t-105.5 -78.5t-70 -29.5t-45.5 16t-17.5 51z" />
<glyph unicode="&#xe3;" horiz-adv-x="1060" d="M96 279q0 125 94.5 305t243 319t277.5 139q98 0 184 -85t86 -179q0 -61 -49 -143q23 -31 22.5 -56.5t-29 -126t-38.5 -155.5t-13.5 -96t-6.5 -68t-7 -51q-8 -49 -43 -49q-74 0 -84 237q-86 -104 -189.5 -170.5t-193.5 -66.5t-172 78.5t-82 167.5zM254 276q0 -39 24.5 -61 t63.5 -25q113 -4 254 124t207 329q10 31 35 39v12q0 84 -29 136.5t-80 52.5q-86 0 -200.5 -115t-194.5 -259t-80 -233zM506 1219q2 76 80 155.5t157 79.5q47 0 83 -23.5t55 -54.5q49 -80 88 -86q37 4 79.5 70.5t79.5 66.5q49 0 48.5 -67.5t-63 -139t-140.5 -71.5 q-111 0 -223 176q-49 -23 -98.5 -93.5t-81 -70.5t-49 15.5t-15.5 42.5z" />
<glyph unicode="&#xe4;" horiz-adv-x="1060" d="M96 279q0 125 94.5 305t243 319t277.5 139q98 0 184 -85t86 -179q0 -61 -49 -143q23 -31 22.5 -56.5t-29 -126t-38.5 -155.5t-13.5 -96t-6.5 -68t-7 -51q-8 -49 -43 -49q-74 0 -84 237q-86 -104 -189.5 -170.5t-193.5 -66.5t-172 78.5t-82 167.5zM254 276q0 -39 24.5 -61 t63.5 -25q113 -4 254 124t207 329q10 31 35 39v12q0 84 -29 136.5t-80 52.5q-86 0 -200.5 -115t-194.5 -259t-80 -233zM575 1291q0 38 28 71t59.5 33t73.5 -77t42 -107.5t-17.5 -48t-33.5 -17.5q-43 0 -97.5 54t-54.5 92zM877 1290q0 39 28.5 72t60 33t72.5 -77t41 -107.5 t-16 -48t-33 -17.5q-45 0 -99 53t-54 92z" />
<glyph unicode="&#xe5;" horiz-adv-x="1060" d="M96 279q0 125 94.5 305t243 319t277.5 139q98 0 184 -85t86 -179q0 -61 -49 -143q23 -31 22.5 -56.5t-29 -126t-38.5 -155.5t-13.5 -96t-6.5 -68t-7 -51q-8 -49 -43 -49q-74 0 -84 237q-86 -104 -189.5 -170.5t-193.5 -66.5t-172 78.5t-82 167.5zM254 276q0 -39 24.5 -61 t63.5 -25q113 -4 254 124t207 329q10 31 35 39v12q0 84 -29 136.5t-80 52.5q-86 0 -200.5 -115t-194.5 -259t-80 -233zM682 1325q10 80 66.5 138.5t129 58.5t118.5 -58.5t36 -138.5t-67.5 -138.5t-129 -58.5t-117.5 58.5t-36 138.5zM793.5 1322q-5.5 -36 11 -62.5t42 -26.5 t47 26.5t25 62.5t-12 62.5t-42 26.5t-46 -26.5t-25 -62.5z" />
<glyph unicode="&#xe6;" horiz-adv-x="1568" d="M96 296q0 110 86 289t228.5 318t277.5 139q74 0 136.5 -50t93.5 -124q152 174 307 174q121 0 218 -113.5t97 -222t-116.5 -176t-258 -67.5t-280.5 35q-29 -90 -29 -165t47 -116t147.5 -41t207 37t118.5 37q49 0 49 -39q0 -53 -122.5 -115.5t-248.5 -62.5t-221.5 72.5 t-115.5 191.5q-84 -119 -187.5 -191.5t-194.5 -72.5t-165 76.5t-74 186.5zM254 280q0 -85 65 -90q100 -4 222.5 104.5t208.5 291.5q18 60 53 119q-4 178 -96.5 178t-201 -115t-180 -259t-71.5 -229zM932 608q88 -20 197.5 -20t185.5 33.5t76 91t-52.5 118t-101.5 60.5 q-80 0 -163 -81t-142 -202z" />
<glyph unicode="&#xe7;" horiz-adv-x="931" d="M100 -334q0 23 57.5 35t132.5 31.5t103 56.5q-14 23 -77.5 37t-88.5 33q-23 8 11 75q47 98 57 129q-84 39 -138.5 113t-54.5 158q0 139 85 305t221.5 284.5t263.5 118.5q86 0 147.5 -72.5t61.5 -119.5t-33 -47q-23 0 -73 39t-91 39q-113 0 -262.5 -199t-149.5 -346 q0 -66 42 -106t119 -40t142.5 13.5t98.5 29.5q82 45 117.5 45.5t35.5 -36.5q0 -55 -142 -132t-257 -77h-12q-20 -49 -54 -105q74 8 152 -43q47 -31 49 -69q2 -70 -93 -128.5t-253 -66.5q-117 -4 -117 45z" />
<glyph unicode="&#xe8;" horiz-adv-x="929" d="M68 365.5q0 144.5 76.5 303t199.5 266t243 107.5t218 -113.5t98 -222t-116.5 -176t-260 -67.5t-278.5 35q-29 -90 -29 -165t47 -116t146.5 -41t206 37t118.5 37q51 0 51 -39q0 -53 -123.5 -115.5t-240.5 -62.5q-156 0 -256 94t-100 238.5zM293 606q90 -18 198.5 -18 t184.5 33.5t76 91t-51.5 118t-102.5 60.5q-80 0 -164 -82t-141 -203zM322 1425q0 43 32 76q55 59 105 8l207 -217q31 -31 39 -63.5t-8.5 -52t-31 -23.5t-34.5 6q-33 20 -58 39l-225 166q-26 18 -26 61z" />
<glyph unicode="&#xe9;" horiz-adv-x="929" d="M68 365.5q0 144.5 76.5 303t199.5 266t243 107.5t218 -113.5t98 -222t-116.5 -176t-260 -67.5t-278.5 35q-29 -90 -29 -165t47 -116t146.5 -41t206 37t118.5 37q51 0 51 -39q0 -53 -123.5 -115.5t-240.5 -62.5q-156 0 -256 94t-100 238.5zM293 606q90 -18 198.5 -18 t184.5 33.5t76 91t-51.5 118t-102.5 60.5q-80 0 -164 -82t-141 -203zM586 1174q-42 48 32 118l224 221q49 45 98 -10q31 -37 30 -80t-28 -61q-248 -180 -256 -184t-17.5 -9.5t-15.5 -7.5t-14 -5t-14.5 -2t-14.5 1q-8 2 -24 19z" />
<glyph unicode="&#xea;" horiz-adv-x="929" d="M68 365.5q0 144.5 76.5 303t199.5 266t243 107.5t218 -113.5t98 -222t-116.5 -176t-260 -67.5t-278.5 35q-29 -90 -29 -165t47 -116t146.5 -41t206 37t118.5 37q51 0 51 -39q0 -53 -123.5 -115.5t-240.5 -62.5q-156 0 -256 94t-100 238.5zM293 606q90 -18 198.5 -18 t184.5 33.5t76 91t-51.5 118t-102.5 60.5q-80 0 -164 -82t-141 -203zM293 1204q0 74 141 152q23 12 55.5 32.5t53 33t43.5 24.5q49 25 68.5 24.5t37 -10.5t25.5 -20q35 -37 59.5 -69t51 -62.5t41 -47t32 -39t24.5 -40t7 -32.5t-15.5 -27.5t-32 -12.5t-28.5 4t-25.5 13.5 t-24.5 17.5t-26.5 24.5t-26 27.5t-26.5 31.5t-25.5 32t-26 33t-24.5 31.5q-57 -31 -120.5 -80t-105.5 -78.5t-69.5 -29.5t-45 16t-17.5 51z" />
<glyph unicode="&#xeb;" horiz-adv-x="929" d="M68 365.5q0 144.5 76.5 303t199.5 266t243 107.5t218 -113.5t98 -222t-116.5 -176t-260 -67.5t-278.5 35q-29 -90 -29 -165t47 -116t146.5 -41t206 37t118.5 37q51 0 51 -39q0 -53 -123.5 -115.5t-240.5 -62.5q-156 0 -256 94t-100 238.5zM293 606q90 -18 198.5 -18 t184.5 33.5t76 91t-51.5 118t-102.5 60.5q-80 0 -164 -82t-141 -203zM379 1291q0 38 27.5 71t59.5 33t74 -77t42 -107.5t-18 -48t-34 -17.5q-43 0 -97 54t-54 92zM680 1290q0 39 28.5 72t60.5 33t73 -77t41 -107.5t-16.5 -48t-32.5 -17.5q-45 0 -99.5 53t-54.5 92z" />
<glyph unicode="&#xec;" horiz-adv-x="532" d="M74 129q14 63 53 208.5t94 379t66 262.5q20 63 47 63q35 0 66.5 -41.5t31.5 -82.5q0 -123 -209 -781q-35 -104 -90 -104q-27 0 -46 29.5t-13 66.5zM109 1425q0 43 32 76q55 59 105 8l207 -217q31 -31 39 -63.5t-8.5 -52t-31 -23.5t-34.5 6q-33 20 -58 39l-225 166 q-26 18 -26 61z" />
<glyph unicode="&#xed;" horiz-adv-x="532" d="M74 129q14 63 53 208.5t94 379t66 262.5q20 63 47 63q35 0 66.5 -41.5t31.5 -82.5q0 -123 -209 -781q-35 -104 -90 -104q-27 0 -46 29.5t-13 66.5zM373 1174q-41 49 33 118l223 221q49 45 98 -10q31 -37 30 -80t-28 -61q-248 -180 -256 -184t-17.5 -9.5t-15.5 -7.5 t-14 -5t-14 -2t-15 1q-8 2 -24 19z" />
<glyph unicode="&#xee;" horiz-adv-x="532" d="M74 129q14 63 53 208.5t94 379t66 262.5q20 63 47 63q35 0 66.5 -41.5t31.5 -82.5q0 -123 -209 -781q-35 -104 -90 -104q-27 0 -46 29.5t-13 66.5zM80 1204q0 74 141 152q23 12 55.5 32.5t53 33t43.5 24.5q49 25 68.5 24.5t37 -10.5t25.5 -20q35 -37 59.5 -69t51 -62.5 t41 -47t32 -39t24.5 -40t7 -32.5t-15.5 -27.5t-32 -12.5t-28.5 4t-25.5 13.5t-24.5 17.5t-26.5 24.5t-26 27.5t-26.5 31.5t-25.5 32t-26 33t-24.5 31.5q-57 -31 -120.5 -80t-105.5 -78.5t-69.5 -29.5t-45 16t-17.5 51z" />
<glyph unicode="&#xef;" horiz-adv-x="532" d="M74 129q14 63 53 208.5t94 379t66 262.5q20 63 47 63q35 0 66.5 -41.5t31.5 -82.5q0 -123 -209 -781q-35 -104 -90 -104q-27 0 -46 29.5t-13 66.5zM166 1291q0 38 27.5 71t59.5 33t74 -77t42 -107.5t-17.5 -48t-34.5 -17.5q-43 0 -97 54t-54 92zM467 1290q0 39 28.5 72 t60.5 33t73 -77t41 -107.5t-16.5 -48t-32.5 -17.5q-45 0 -99.5 53t-54.5 92z" />
<glyph unicode="&#xf0;" d="M70 360q0 242 136 419t326 177q82 0 154 -71q-8 123 -51 231q-170 -68 -219 -67.5t-49 34.5q0 33 65 64q58 28 154 63q-72 109 -142 109q-16 0 -50 -15.5t-52 -15.5q-33 0 -33 44t49.5 84t102.5 40q152 0 272 -188q158 63 180 63q47 0 48 -31q0 -37 -179 -122 q78 -168 78 -360.5t-72.5 -373t-199.5 -296t-271 -115.5q-104 0 -175.5 90t-71.5 237zM238 340q0 -63 26.5 -116.5t65.5 -53.5q117 0 230.5 189.5t127.5 392.5q-63 78 -125 77q-119 0 -222 -139t-103 -350z" />
<glyph unicode="&#xf1;" horiz-adv-x="1083" d="M50 157q7 36 41 142.5t50 169.5q53 199 62 442q4 74 11 106t30 32q41 0 83 -45.5t42 -104.5t-33 -219t-86 -313q201 344 330 509.5t215 165.5q68 0 136 -82.5t68 -175.5q0 -145 -67 -354q-127 -397 -219 -397q-43 0 -43 55q0 45 47 178q123 354 123 482q0 45 -19.5 76.5 t-40 31.5t-42 -12.5t-47 -40t-49.5 -56t-57.5 -80t-58.5 -89.5q-137 -211 -205.5 -321t-95.5 -151q-53 -74 -79.5 -73.5t-64.5 44.5t-31 80zM328 1219q2 76 79.5 155.5t157.5 79.5q47 0 83 -23.5t54 -54.5q49 -80 89 -86q37 4 79.5 70.5t79.5 66.5q49 0 48 -67.5t-63.5 -139 t-139.5 -71.5q-111 0 -224 176q-49 -22 -98 -93t-81 -71t-49 15.5t-15 42.5z" />
<glyph unicode="&#xf2;" d="M78 369.5q0 148.5 69.5 307.5t185.5 262t237.5 103t201.5 -103.5t80 -238.5q0 -248 -161 -457.5t-374 -209.5q-104 0 -171.5 94t-67.5 242.5zM244 363.5q0 -162.5 80 -199.5q154 27 260 201t106 333q0 72 -24.5 135.5t-69.5 90.5q-147 -37 -249.5 -217.5t-102.5 -343z M340 1425q0 43 33 76q55 59 104 8l207 -217q31 -31 39 -63.5t-8.5 -52t-30.5 -23.5t-35 6q-33 20 -57 39l-225 166q-27 18 -27 61z" />
<glyph unicode="&#xf3;" d="M78 369.5q0 148.5 69.5 307.5t185.5 262t237.5 103t201.5 -103.5t80 -238.5q0 -248 -161 -457.5t-374 -209.5q-104 0 -171.5 94t-67.5 242.5zM244 363.5q0 -162.5 80 -199.5q154 27 260 201t106 333q0 72 -24.5 135.5t-69.5 90.5q-147 -37 -249.5 -217.5t-102.5 -343z M604 1174q-41 49 33 118l223 221q49 45 98 -10q31 -37 30 -80t-27 -61q-248 -180 -256.5 -184t-17.5 -9.5t-15 -7.5t-14.5 -5t-14.5 -2t-12 1q-10 2 -27 19z" />
<glyph unicode="&#xf4;" d="M78 369.5q0 148.5 69.5 307.5t185.5 262t237.5 103t201.5 -103.5t80 -238.5q0 -248 -161 -457.5t-374 -209.5q-104 0 -171.5 94t-67.5 242.5zM244 363.5q0 -162.5 80 -199.5q154 27 260 201t106 333q0 72 -24.5 135.5t-69.5 90.5q-147 -37 -249.5 -217.5t-102.5 -343z M311 1204q0 74 142 152q23 12 55.5 32.5t53 33t44.5 24.5q45 25 65.5 24.5t38 -10.5t27.5 -20q33 -37 57.5 -69t51 -62.5t41 -47t32 -39t24.5 -40t7 -32.5t-15 -27.5t-31.5 -12.5t-29 4t-25.5 13.5t-24.5 17.5t-27 24.5t-25.5 27.5t-26.5 31.5t-25.5 32t-25.5 33t-24.5 31.5 q-57 -31 -121 -80t-106 -78.5t-69.5 -29.5t-45 16t-17.5 51z" />
<glyph unicode="&#xf5;" d="M78 369.5q0 148.5 69.5 307.5t185.5 262t237.5 103t201.5 -103.5t80 -238.5q0 -248 -161 -457.5t-374 -209.5q-104 0 -171.5 94t-67.5 242.5zM244 363.5q0 -162.5 80 -199.5q154 27 260 201t106 333q0 72 -24.5 135.5t-69.5 90.5q-147 -37 -249.5 -217.5t-102.5 -343z M328 1219q2 76 79.5 155.5t157.5 79.5q47 0 83 -23.5t54 -54.5q49 -80 89 -86q37 4 79.5 70.5t79.5 66.5q49 0 48 -67.5t-63.5 -139t-139.5 -71.5q-111 0 -224 176q-49 -23 -98 -93.5t-81 -70.5t-49 15.5t-15 42.5z" />
<glyph unicode="&#xf6;" d="M78 369.5q0 148.5 69.5 307.5t185.5 262t237.5 103t201.5 -103.5t80 -238.5q0 -248 -161 -457.5t-374 -209.5q-104 0 -171.5 94t-67.5 242.5zM244 363.5q0 -162.5 80 -199.5q154 27 260 201t106 333q0 72 -24.5 135.5t-69.5 90.5q-147 -37 -249.5 -217.5t-102.5 -343z M397 1291q0 38 28 71t59.5 33t73.5 -77t42 -107.5t-17.5 -48t-33.5 -17.5q-45 0 -98.5 54t-53.5 92zM698 1290q0 39 29 72t60.5 33t72.5 -77t41 -107.5t-16.5 -48t-32.5 -17.5q-45 0 -99.5 53t-54.5 92z" />
<glyph unicode="&#xf7;" horiz-adv-x="1228" d="M86 695q0 40 55 40q295 0 437 8q438 31 544.5 31t106.5 -43q0 -72 -327.5 -112.5t-692.5 -40.5q-47 0 -85 38.5t-38 78.5zM416 273q0 44 33.5 86t69.5 42t85 -98t49 -149q0 -14 -21.5 -33t-39.5 -19q-49 0 -112.5 63.5t-63.5 107.5zM590 1082q0 44 33.5 86t69.5 42 t85 -98t49 -149q0 -14 -20.5 -33t-40.5 -19q-49 0 -112.5 63.5t-63.5 107.5z" />
<glyph unicode="&#xf8;" d="M43 70q0 25 74 120q-39 78 -39 170q0 154 75.5 312.5t203.5 264t261 105.5q96 0 170 -69q80 74 136 74q16 0 27.5 -11.5t11.5 -25.5q0 -31 -74 -113l-27 -31q35 -80 35 -166q0 -154 -78 -309t-210 -256.5t-273 -101.5q-82 0 -156 69q-68 -72 -96 -71q-41 0 -41 39z M227 326l469 548q-33 41 -71 50q-150 -16 -274 -212t-124 -374v-12zM268 199q31 -37 68 -45q109 4 209 105t154.5 229.5t54.5 226.5q0 18 -2 28q-457 -514 -484 -544z" />
<glyph unicode="&#xf9;" horiz-adv-x="980" d="M33 268q0 125 54 312.5t127 324.5t120 137q33 0 58.5 -31.5t25.5 -61t-55.5 -140.5t-109.5 -265.5t-54 -277.5q0 -35 21.5 -58.5t51.5 -23.5q82 0 194 141.5t199 325t109.5 276.5t30.5 104t29 11q37 0 76.5 -61t25.5 -111l-225 -751q-25 -86 -68 -86q-27 0 -44 24.5 t-15 69.5q8 84 51 225q-86 -141 -187.5 -230t-186.5 -89t-156.5 75.5t-71.5 159.5zM340 1425q0 43 33 76q55 59 104 8l207 -217q31 -31 39 -63.5t-8.5 -52t-30.5 -23.5t-35 6q-33 20 -57 39l-225 166q-27 18 -27 61z" />
<glyph unicode="&#xfa;" horiz-adv-x="980" d="M33 268q0 125 54 312.5t127 324.5t120 137q33 0 58.5 -31.5t25.5 -61t-55.5 -140.5t-109.5 -265.5t-54 -277.5q0 -35 21.5 -58.5t51.5 -23.5q82 0 194 141.5t199 325t109.5 276.5t30.5 104t29 11q37 0 76.5 -61t25.5 -111l-225 -751q-25 -86 -68 -86q-27 0 -44 24.5 t-15 69.5q8 84 51 225q-86 -141 -187.5 -230t-186.5 -89t-156.5 75.5t-71.5 159.5zM604 1174q-41 48 33 118l223 221q49 45 98 -10q31 -37 30 -80t-27 -61q-248 -180 -256.5 -184t-17.5 -9.5t-15 -7.5t-14.5 -5t-14.5 -2t-12 1q-10 2 -27 19z" />
<glyph unicode="&#xfb;" horiz-adv-x="980" d="M33 268q0 125 54 312.5t127 324.5t120 137q33 0 58.5 -31.5t25.5 -61t-55.5 -140.5t-109.5 -265.5t-54 -277.5q0 -35 21.5 -58.5t51.5 -23.5q82 0 194 141.5t199 325t109.5 276.5t30.5 104t29 11q37 0 76.5 -61t25.5 -111l-225 -751q-25 -86 -68 -86q-27 0 -44 24.5 t-15 69.5q8 84 51 225q-86 -141 -187.5 -230t-186.5 -89t-156.5 75.5t-71.5 159.5zM311 1204q0 74 142 152q23 12 55.5 32.5t53 33t44.5 24.5q45 25 65.5 24.5t38 -10.5t27.5 -20q33 -37 57.5 -69t51 -62.5t41 -47t31.5 -38.5q33 -41 32.5 -64.5t-15.5 -36t-31.5 -12.5 t-29 4t-25.5 13.5t-24.5 17.5t-27 24.5t-25.5 27.5t-26.5 31.5t-25.5 32t-25.5 33t-24.5 31.5q-57 -31 -121 -80t-106 -78.5t-69.5 -29.5t-45 16t-17.5 51z" />
<glyph unicode="&#xfc;" horiz-adv-x="980" d="M33 268q0 125 54 312.5t127 324.5t120 137q33 0 58.5 -31.5t25.5 -61t-55.5 -140.5t-109.5 -265.5t-54 -277.5q0 -35 21.5 -58.5t51.5 -23.5q82 0 194 141.5t199 325t109.5 276.5t30.5 104t29 11q37 0 76.5 -61t25.5 -111l-225 -751q-25 -86 -68 -86q-27 0 -44 24.5 t-15 69.5q8 84 51 225q-86 -141 -187.5 -230t-186.5 -89t-156.5 75.5t-71.5 159.5zM397 1291q0 38 28 71t59.5 33t73.5 -77t42 -107.5t-17.5 -48t-33.5 -17.5q-45 0 -98.5 54t-53.5 92zM698 1290q0 39 29 72t60.5 33t72.5 -77t41 -107.5t-16.5 -48t-32.5 -17.5 q-45 0 -99.5 53t-54.5 92z" />
<glyph unicode="&#xfd;" horiz-adv-x="1064" d="M12 -285q0 27 23.5 59.5t39 32.5t43 -28.5t58.5 -61.5q80 -90 162 -90t137 158l158 448q-144 -200 -289 -200q-88 0 -158.5 77.5t-70.5 170.5q0 193 111.5 477t181.5 284q33 0 62.5 -31.5t29.5 -63.5t-56 -144q-166 -338 -165 -537q0 -35 21.5 -58.5t53.5 -23.5 q119 -2 270.5 258t239.5 543q8 35 15.5 46t27.5 11q45 0 84 -64.5t15 -135.5l-371 -1053q-102 -289 -299 -289q-113 0 -218.5 70t-105.5 145zM651 1174q-41 48 33 118l223 221q49 45 99 -10q31 -37 29.5 -80t-27.5 -61q-248 -180 -256.5 -184t-17.5 -9.5t-15 -7.5t-14.5 -5 t-14.5 -2t-14 1q-8 2 -25 19z" />
<glyph unicode="&#xfe;" horiz-adv-x="1077" d="M-14 -287q0 41 88 391q260 1051 260 1348q0 33 9 47t38 14t72 -56t42.5 -125.5t-53.5 -366.5q133 63 241 63t222.5 -120t114.5 -252t-110.5 -248.5t-258.5 -174.5q-260 -100 -379 0q-162 -643 -188.5 -643t-62 41t-35.5 82zM301 350q51 -18 86 -20q84 -6 195.5 38 t196.5 123.5t85 165.5t-58 145.5t-154.5 59.5t-248.5 -90q-31 -135 -102 -422z" />
<glyph unicode="&#xff;" horiz-adv-x="1064" d="M12 -285q0 27 23.5 59.5t39 32.5t43 -28.5t58.5 -61.5q80 -90 162 -90t137 158l158 448q-144 -200 -289 -200q-88 0 -158.5 77.5t-70.5 170.5q0 193 111.5 477t181.5 284q33 0 62.5 -31.5t29.5 -63.5t-56 -144q-166 -338 -165 -537q0 -35 21.5 -58.5t53.5 -23.5 q119 -2 270.5 258t239.5 543q8 35 15.5 46t27.5 11q45 0 84 -64.5t15 -135.5l-371 -1053q-102 -289 -299 -289q-113 0 -218.5 70t-105.5 145zM444 1291q0 38 28 71t59.5 33t73.5 -77t42 -107.5t-17.5 -48t-33.5 -17.5q-43 0 -97.5 54t-54.5 92zM745 1290q0 39 29 72t60.5 33 t72.5 -77t41 -107.5t-16.5 -48t-32.5 -17.5q-45 0 -99.5 53t-54.5 92z" />
<glyph unicode="&#x152;" horiz-adv-x="2105" d="M104 395q0 174 61.5 349.5t155 304.5t207 209.5t211.5 80.5q154 0 254 -147v16q0 33 13 49q37 72 425 72t388 -61q0 -31 -43 -43q-53 -18 -144.5 -25.5t-149 -12.5l-92 -8t-235.5 -32q-2 -145 -68 -383h52l360 18q78 0 78 -32q0 -133 -530 -134h-3q-100 -330 -100 -376.5 t47 -46.5q225 0 492 67q90 23 104 23q35 0 35 -45q0 -74 -213 -142.5t-416 -68.5q-90 0 -158.5 51t-70.5 117q-176 -162 -356 -162q-123 0 -213.5 118.5t-90.5 243.5zM276 427q0 -116 41.5 -177.5t102.5 -61.5q94 0 213 112t202 269.5t83 296t-49.5 222t-113 83.5 t-144.5 -69.5t-154.5 -174t-127 -244.5t-53.5 -256z" />
<glyph unicode="&#x153;" horiz-adv-x="1503" d="M78 369.5q0 148.5 69.5 307.5t185.5 262t238 103q88 0 156 -56t100 -146q164 203 332 202q121 0 219.5 -113.5t98.5 -222t-117 -176t-260.5 -67.5t-278.5 35q-29 -90 -28.5 -165t47.5 -116t146 -41t205.5 37t119.5 37q51 0 51 -39q0 -53 -124 -115.5t-237.5 -62.5 t-199.5 50t-127 136q-162 -186 -357 -186q-104 0 -171.5 94t-67.5 242.5zM244 363.5q0 -162.5 80 -199.5q154 27 260 200.5t106 333.5q0 72 -24.5 135.5t-69.5 90.5q-147 -37 -249.5 -217.5t-102.5 -343zM866 606q88 -18 198 -18t185.5 33.5t75.5 91t-51.5 118t-102.5 60.5 q-80 0 -163.5 -82t-141.5 -203z" />
<glyph unicode="&#x178;" horiz-adv-x="1081" d="M125 1188q-10 152 82 151q35 0 55.5 -57t49 -165.5t71.5 -199t104.5 -147.5t104.5 -57q31 0 116 156.5t178 313t146 156.5q43 0 73 -31.5t30 -74.5t-69 -157.5t-191.5 -304t-194.5 -316.5q-168 -313 -213 -367.5t-76 -54.5q-49 0 -49 80t186 432q-160 47 -269 227 t-134 416zM403 1598.5q0 37.5 28 70.5t59.5 33t73.5 -77t42 -107.5t-17.5 -48t-33.5 -17.5q-43 0 -97.5 54.5t-54.5 92zM705 1597.5q0 38.5 28.5 71.5t60 33t72.5 -77t41 -107.5t-16.5 -48t-32.5 -17.5q-45 0 -99 53.5t-54 92z" />
<glyph unicode="&#x2c6;" horiz-adv-x="0" d="M-276 1204q0 74 141 152q23 12 55.5 32.5t53 33t42.5 24.5q47 25 67.5 24.5t38 -10.5t25.5 -20q35 -37 59.5 -69t51.5 -62.5t41 -47t31.5 -39t24.5 -40t7 -32.5t-15 -27.5t-31.5 -12.5t-29 4t-25.5 13.5t-24.5 17.5t-26.5 24.5t-25.5 27.5t-27 31.5t-25.5 32t-25.5 33 t-24.5 31.5q-57 -31 -120.5 -80t-105.5 -78.5t-70 -29.5t-45 16t-17 51z" />
<glyph unicode="&#x2dc;" horiz-adv-x="0" d="M-260 1219q2 76 79.5 155.5t157.5 79.5q47 0 83 -23.5t55 -54.5q49 -80 88 -86q37 4 80 70.5t79 66.5q49 0 48.5 -67.5t-63 -139t-140.5 -71.5q-111 0 -223 176q-49 -23 -98.5 -93.5t-81 -70.5t-49 15.5t-15.5 42.5z" />
<glyph unicode="&#x2000;" horiz-adv-x="920" />
<glyph unicode="&#x2001;" horiz-adv-x="1841" />
<glyph unicode="&#x2002;" horiz-adv-x="920" />
<glyph unicode="&#x2003;" horiz-adv-x="1841" />
<glyph unicode="&#x2004;" horiz-adv-x="613" />
<glyph unicode="&#x2005;" horiz-adv-x="460" />
<glyph unicode="&#x2006;" horiz-adv-x="306" />
<glyph unicode="&#x2007;" horiz-adv-x="306" />
<glyph unicode="&#x2008;" horiz-adv-x="230" />
<glyph unicode="&#x2009;" horiz-adv-x="368" />
<glyph unicode="&#x200a;" horiz-adv-x="102" />
<glyph unicode="&#x2010;" horiz-adv-x="923" d="M111 592q0 43 229 85t368.5 42t139.5 -49q0 -33 -65.5 -51.5t-201 -45t-212 -43t-112.5 -23.5t-61.5 -7t-55 31.5t-29.5 60.5z" />
<glyph unicode="&#x2011;" horiz-adv-x="923" d="M111 592q0 43 229 85t368.5 42t139.5 -49q0 -33 -65.5 -51.5t-201 -45t-212 -43t-112.5 -23.5t-61.5 -7t-55 31.5t-29.5 60.5z" />
<glyph unicode="&#x2012;" horiz-adv-x="923" d="M111 592q0 43 229 85t368.5 42t139.5 -49q0 -33 -65.5 -51.5t-201 -45t-212 -43t-112.5 -23.5t-61.5 -7t-55 31.5t-29.5 60.5z" />
<glyph unicode="&#x2013;" horiz-adv-x="1247" d="M143 590q-2 45 315.5 105.5t583.5 64.5q123 0 123 -51q0 -37 -145 -68q-135 -29 -238.5 -44t-160 -23.5t-206 -39t-181 -33.5t-61.5 27.5t-30 61.5z" />
<glyph unicode="&#x2014;" horiz-adv-x="1865" d="M141 596q0 66 458 107.5t1021 41.5q186 0 186 -57q0 -43 -213 -61q-109 -8 -221 -15q-373 -20 -546 -35.5t-378.5 -45t-230 -30.5t-50.5 30.5t-26 64.5z" />
<glyph unicode="&#x2018;" horiz-adv-x="550" d="M244 1341q0 125 117.5 253t197.5 128q49 0 49 -36q0 -25 -49 -70t-98 -105.5t-49 -109.5t21.5 -72.5t45.5 -34.5q70 -27 70 -69q0 -35 -35 -61.5t-80 -26.5q-78 0 -134 58t-56 146z" />
<glyph unicode="&#x2019;" horiz-adv-x="550" d="M250 1174q0 25 49 69.5t98 105t49 114t-34.5 79t-68.5 44t-34 51t35 59t80 26.5q78 0 134 -58t56 -146q0 -125 -118.5 -253t-196.5 -128q-49 0 -49 37z" />
<glyph unicode="&#x201a;" horiz-adv-x="772" d="M-31 -322q0 16 34 48t73 66t72.5 92.5t33.5 104.5t-19.5 65.5t-41.5 27.5q-61 23 -62 61q0 33 36 68t71 35q72 0 125 -56.5t53 -134.5q0 -141 -121 -273t-209 -132q-45 0 -45 28z" />
<glyph unicode="&#x201c;" horiz-adv-x="983" d="M262 1341q0 125 118 253t198 128q49 0 49 -36q0 -25 -49.5 -70t-98.5 -105.5t-49 -114t35 -79t68.5 -44t33.5 -51t-34.5 -59t-79.5 -26.5q-78 0 -134.5 58t-56.5 146zM696 1341q0 125 118 253t196 128q49 0 49 -36q0 -25 -49 -70t-98.5 -105.5t-49.5 -109.5t21.5 -72.5 t48.5 -34.5q70 -27 69 -69q0 -33 -35.5 -60.5t-78.5 -27.5q-78 0 -134.5 58t-56.5 146z" />
<glyph unicode="&#x201d;" horiz-adv-x="985" d="M250 1174q0 25 49 69.5t98 105t49 114t-34.5 79t-68.5 44t-34 51t35 59t80 26.5q78 0 134 -58t56 -146q0 -125 -118.5 -253t-196.5 -128q-49 0 -49 37zM684 1174q0 25 49 69q145 133 146 227q0 37 -21.5 60.5t-46.5 34.5q-70 27 -70 69q0 33 36 60.5t79 27.5 q78 0 134.5 -58t56.5 -146q0 -125 -118 -253t-196 -128q-49 0 -49 37z" />
<glyph unicode="&#x201e;" horiz-adv-x="1228" d="M-31 -322q0 16 34 48t73 66t72.5 92.5t33.5 104.5t-19.5 65.5t-41.5 27.5q-61 23 -62 61q0 33 36 68t71 35q72 0 125 -56.5t53 -134.5q0 -141 -121 -273t-209 -132q-45 0 -45 28z" />
<glyph unicode="&#x2022;" horiz-adv-x="485" d="M109 701.5q0 54.5 43 105.5t87 51t103 -122t59 -183q0 -18 -24.5 -41t-48.5 -23q-62 0 -140.5 79t-78.5 133.5z" />
<glyph unicode="&#x2026;" horiz-adv-x="1335" d="M119 159q0 44 33.5 86t70.5 42t86 -98.5t49 -149.5q0 -14 -21.5 -32.5t-39.5 -18.5q-51 0 -114.5 63.5t-63.5 107.5zM555 159q0 44 34 86t70.5 42t85 -98.5t48.5 -149.5q0 -14 -20.5 -32.5t-39.5 -18.5q-49 0 -113.5 63.5t-64.5 107.5zM993 159q0 44 34 86t71 42 t86 -98.5t49 -149.5q0 -14 -21.5 -32.5t-40.5 -18.5q-49 0 -113.5 63.5t-64.5 107.5z" />
<glyph unicode="&#x202f;" horiz-adv-x="368" />
<glyph unicode="&#x2039;" horiz-adv-x="1175" d="M164 633q0 29 24.5 69.5t47.5 59.5q88 70 298.5 163t292.5 93q37 0 69 -21.5t32 -39t-10 -27.5q-16 -14 -133 -50t-286 -113t-169 -120q0 -33 131 -95.5t262 -122.5t131 -85q0 -39 -84 -39t-345 128t-261 200z" />
<glyph unicode="&#x203a;" horiz-adv-x="1206" d="M258 331.5q0 30.5 283.5 163t283.5 162.5q0 45 -131 122t-235.5 109t-104.5 58q0 18 29 45t53 27q63 -2 194.5 -60.5t243 -146.5t111.5 -147.5t-41 -94.5q-82 -70 -310 -169t-302 -99t-74 30.5z" />
<glyph unicode="&#x205f;" horiz-adv-x="460" />
<glyph unicode="&#x20ac;" horiz-adv-x="1114" d="M33 483.5q0 26.5 186 57.5q16 78 57 176q-29 -4 -79 -4q-27 2 -53.5 37.5t-26.5 60.5q0 39 241 61q123 201 296 334t345 133q53 0 107.5 -59t54.5 -93t-13 -53.5t-27.5 -19.5t-52.5 27.5t-71 27.5q-88 0 -206.5 -79.5t-221.5 -202.5q303 10 385 0q115 -10 115 -60 q-2 -31 -125 -47q-109 -14 -479 -43q-49 -86 -74 -172q295 37 458 37t159 -47q0 -35 -127 -59q-139 -31 -508 -80q8 -100 67.5 -158.5t170 -58.5t218 35.5t178 71.5t89 36t29 -13.5t10.5 -31.5q0 -41 -85 -104.5t-213 -111.5t-235 -48q-174 0 -282.5 103.5t-114.5 254.5 q-33 -4 -90 -4q-27 0 -54.5 35t-27.5 61.5z" />
<glyph unicode="&#x2122;" horiz-adv-x="1509" d="M104 1321q0 16 60.5 20.5t208 4.5t203 -23t55.5 -49q0 -23 -66 -23q-12 0 -147 4q-4 -39 -65.5 -255t-84.5 -216q-14 0 -34.5 18.5t-20.5 39t45 180t55 233.5l-149 -6q-20 0 -40 25.5t-20 46.5zM633 851.5q0 20.5 57.5 218.5t57.5 251q0 29 30 29q16 0 45 -22.5t31 -43.5 q8 -68 102 -244q39 41 88.5 95.5t78 85t59 62.5t49 45t34 13t41 -17t25.5 -36.5t-45 -166t-55 -185.5t-17.5 -63.5t-13.5 -45.5q-25 -70 -61 -24q-14 20 -14.5 55t20 132t49.5 171q-20 -23 -50 -55.5t-45.5 -49t-38 -40t-35.5 -35.5t-30 -23q-29 -23 -57.5 -22.5t-48.5 31.5 q-25 31 -80 149q-14 -47 -35.5 -109.5t-29 -87t-11.5 -39t-10 -32t-10 -27.5t-8 -18q-8 -18 -15 -19q-12 0 -34.5 23.5t-22.5 44z" />
<glyph unicode="&#x25fc;" horiz-adv-x="1044" d="M0 0v1044h1044v-1044h-1044z" />
<glyph unicode="&#xfb01;" horiz-adv-x="1083" d="M102 852q0 49 254 92q14 57 33 160q51 270 129 385t217 115q109 0 224.5 -100.5t115.5 -195t-49 -94.5q-33 0 -82 60.5t-103.5 120t-95 59.5t-67.5 -25.5t-51 -89.5q-39 -106 -60 -190l-43 -180q274 35 396 35q143 0 120 -127q0 -18 -215 -740q-29 -104 -80 -104 q-29 0 -49 29.5t-18 63.5t96 379t96 363q-96 -6 -385 -57q-139 -580 -200 -721q-29 -63 -52.5 -63t-54.5 38.5t-21.5 80.5t40.5 161q80 289 125 475q-106 -18 -133 -18t-57 28.5t-30 59.5z" />
<glyph unicode="&#xfb02;" horiz-adv-x="1118" d="M109 883.5q0 23.5 33.5 42t84.5 20.5l95 12q25 123 57 324q45 322 272 322q78 0 124 -49.5t46 -122t-45 -72.5q-23 0 -50.5 47t-71.5 47t-71.5 -66.5t-52 -211t-34.5 -193.5q195 35 308.5 102.5t119.5 196.5q4 55 9 133t7 103q8 86 39 86q43 0 83 -43t38 -107 q-2 -233 -73 -592.5t-169 -679.5q-51 -150 -80 -149q-49 0 -74.5 49t-7.5 106q129 451 189 795q-84 -61 -174 -95t-240 -63l-8 -2q-90 -430 -174 -663q-27 -74 -43.5 -103.5t-43 -29.5t-56 42t-15.5 89q76 246 160 643q-70 -4 -96.5 -3t-56 31.5t-29.5 54z" />
</font>
</defs>
</svg>
